<svg width="34" height="36" viewBox="0 0 34 36" fill="none" xmlns="http://www.w3.org/2000/svg">
<path d="M21 0.5H33.5V11.5C33.5 15.2344 33.4994 18.0104 33.3486 20.2207C33.2075 22.2886 32.9367 23.8297 32.4258 25.167L32.3203 25.4316C30.7963 29.1109 27.9165 32.0572 24.2852 33.668L23.9316 33.8203C22.5326 34.3998 20.9264 34.6981 18.7207 34.8486C16.5104 34.9994 13.7344 35 10 35H0.5V21C0.5 17.7317 0.500068 15.3054 0.631836 13.374C0.746869 11.6881 0.960715 10.4069 1.34961 9.29883L1.52734 8.83398C2.85464 5.62961 5.36277 3.06316 8.52539 1.66016L8.83398 1.52734C10.0492 1.02402 11.4472 0.7633 13.374 0.631836C15.3054 0.500068 17.7317 0.5 21 0.5Z" fill="#1C7C8B" stroke="#FAF7F0"/>
<path d="M17 11.5V23.5" stroke="#FAF7F0" stroke-width="1.5" stroke-linecap="round"/>
<path d="M11 17.5H23" stroke="#FAF7F0" stroke-width="1.5" stroke-linecap="round"/>
</svg>
