<svg width="163" height="156" viewBox="0 0 163 156" fill="none" xmlns="http://www.w3.org/2000/svg">
<rect width="163" height="159" rx="23" fill="#FEF6F4"/>
<mask id="mask0_386_97" style="mask-type:alpha" maskUnits="userSpaceOnUse" x="0" y="0" width="163" height="159">
<rect width="163" height="159" rx="23" fill="#E2F6F8"/>
</mask>
<g mask="url(#mask0_386_97)">
<path d="M117.371 109.462C171.244 49.1193 203.291 61.7729 222.609 81.1916L212.169 168.67L-52.4906 176.834L-61.9526 113.095C-17.9392 140.726 69.9095 162.623 117.371 109.462Z" fill="#FF643D" fill-opacity="0.07"/>
</g>
<g clip-path="url(#clip0_386_97)">
<path d="M68.0814 86.972C68.4018 86.972 68.6615 86.7124 68.6615 86.3919C68.6615 79.7036 83.5869 72.918 83.7378 72.8503C84.03 72.7188 84.1605 72.3755 84.029 72.0833C83.898 71.7911 83.5546 71.6607 83.2624 71.7919C82.6188 72.081 67.5015 78.9571 67.5015 86.3919C67.5013 86.7122 67.7611 86.972 68.0814 86.972Z" fill="#001C18" stroke="#001C18" stroke-width="0.384"/>
<path d="M108.302 85.72H107.293C106.987 81.0619 103.01 75.8789 95.4606 70.3031C89.6791 66.0325 83.8177 63.0904 83.7591 63.061C83.596 62.9797 83.404 62.9797 83.2409 63.061C83.1823 63.0904 77.3208 66.0327 71.5391 70.3029C63.9898 75.8789 60.0128 81.0619 59.7065 85.72H58.6973C58.3769 85.72 58.1172 85.9796 58.1172 86.3001V129.42C58.1172 129.74 58.3769 130 58.6973 130C59.0176 130 59.2774 129.74 59.2774 129.42V127.294H62.7351V129.42C62.7351 129.74 62.9949 130 63.3152 130C63.6356 130 63.8953 129.74 63.8953 129.42V86.9719H64.2663C64.5867 86.9719 64.8464 86.7123 64.8464 86.3918C64.8464 78.4801 81.2785 70.2016 83.5001 69.1192C85.7215 70.2016 102.153 78.4801 102.153 86.3918C102.153 86.7123 102.413 86.9719 102.734 86.9719H103.104V129.42C103.104 129.74 103.364 130 103.684 130C104.005 130 104.265 129.74 104.265 129.42V127.294H107.722V129.42C107.722 129.74 107.982 130 108.302 130C108.623 130 108.883 129.74 108.883 129.42V86.3001C108.882 85.9796 108.623 85.72 108.302 85.72ZM104.264 90.5309H107.722V123.677H104.264V90.5309ZM62.7351 123.677H59.2774V90.5309H62.7351V123.677ZM59.2774 126.134V124.837H62.7351V126.134H59.2774ZM83.7459 67.9499C83.5899 67.8771 83.41 67.8771 83.254 67.9499C82.4718 68.3161 64.4707 76.8445 63.7108 85.8116H63.3151C62.9947 85.8116 62.735 86.0712 62.735 86.3917V89.3706H59.2774V86.8801H60.2674C60.5878 86.8801 60.8475 86.6204 60.8475 86.2999C60.8475 76.2829 80.9679 65.5428 83.4999 64.2316C86.0321 65.5422 106.152 76.2794 106.152 86.2999C106.152 86.6204 106.412 86.8801 106.732 86.8801H107.722V89.3706H104.264V86.3917C104.264 86.0712 104.005 85.8116 103.684 85.8116H103.289C102.529 76.8445 84.5281 68.3161 83.7459 67.9499ZM104.264 126.134V124.837H107.722V126.134H104.264Z" fill="#001C18" stroke="#001C18" stroke-width="0.384"/>
<path d="M77.626 125.195H73.6846C73.3642 125.195 73.1045 125.455 73.1045 125.776C73.1045 126.096 73.3642 126.356 73.6846 126.356H77.626C77.9464 126.356 78.2062 126.096 78.2062 125.776C78.2062 125.455 77.9464 125.195 77.626 125.195Z" fill="#001C18" stroke="#001C18" stroke-width="0.384"/>
<path d="M92.9773 110.096C93.434 108.856 94.8242 105.144 94.8242 105.144C94.8989 104.944 94.8574 104.719 94.7162 104.558C94.5752 104.398 94.3568 104.328 94.1492 104.377L90.8535 105.143L90.6657 104.741C90.5496 104.493 90.2755 104.36 90.0095 104.422L80.8999 106.528C80.7293 106.568 80.5857 106.682 80.509 106.84C80.4322 106.997 80.4309 107.181 80.505 107.339L81.8816 110.284L80.3558 110.634C80.369 109.844 80.3675 108.461 80.2492 107.017C80.0816 104.969 79.7383 103.517 79.2094 102.631C79.8239 102.484 80.4187 102.243 80.9732 101.903C82.3581 101.056 83.3302 99.72 83.7102 98.1413C84.192 96.1386 83.6086 94.0061 82.19 92.5193L81.8541 89.7091C81.7751 89.0493 81.2149 88.5518 80.551 88.5518C80.499 88.5518 80.4463 88.5548 80.3943 88.561L73.1148 89.4317C72.3958 89.5177 71.8809 90.1728 71.9671 90.8916L72.3439 94.0442C72.149 94.4429 71.995 94.8622 71.8907 95.2959C71.5107 96.8743 71.7682 98.5064 72.6157 99.8914C72.8053 100.201 73.0207 100.489 73.2564 100.756C71.9081 101.638 68.9108 104.202 68.1723 109.888C67.8196 112.604 67.6429 116.542 68.0885 118.77L68.1108 118.882C68.3473 120.071 68.666 121.665 70.2959 122.517C69.6732 122.754 69.0717 123.086 68.5899 123.553C67.8884 124.232 67.5327 125.092 67.5327 126.109V127.671C67.5327 127.825 67.594 127.973 67.7031 128.081C67.8118 128.19 67.9591 128.251 68.1128 128.251C68.1131 128.251 68.1135 128.251 68.1139 128.251L84.8172 128.221C88.4946 128.221 90.6996 126.485 90.8664 123.458C90.9963 121.101 90.6182 118.263 86.5063 117.223C86.3298 117.178 86.1487 117.135 85.9641 117.092C84.7694 116.808 83.5416 116.514 82.5864 115.554L87.2995 114.463C88.4422 114.2 89.1588 113.057 88.8969 111.914L88.7656 111.342L92.5648 110.458C92.8841 110.368 92.9258 110.236 92.9773 110.096ZM73.2528 90.5839L80.5322 89.7132C80.5386 89.7125 80.545 89.7121 80.5513 89.7121C80.6282 89.7121 80.6932 89.7701 80.7024 89.847L80.9949 92.2939L73.4448 93.4786L73.3885 93.0081L75.7998 92.6816C76.1173 92.6384 76.3398 92.3463 76.2968 92.0288C76.254 91.7114 75.9616 91.49 75.6441 91.5317L73.2508 91.8556L73.1191 90.754C73.1091 90.6703 73.169 90.594 73.2528 90.5839ZM73.0187 95.5676C73.093 95.2587 73.1974 94.9586 73.3285 94.6713L81.4285 93.4004C82.5216 94.5993 82.9637 96.2855 82.5825 97.8698C81.9478 100.507 79.2866 102.136 76.6494 101.501C75.3722 101.193 74.2912 100.407 73.6054 99.2861C72.9197 98.1654 72.7112 96.845 73.0187 95.5676ZM85.6966 118.221C85.8754 118.263 86.0511 118.305 86.2221 118.348C89.3034 119.128 89.8442 120.929 89.7083 123.394C89.5411 126.425 86.9565 127.061 84.8163 127.061L68.6932 127.09V126.356H71.8751C72.1954 126.356 72.4552 126.096 72.4552 125.776C72.4552 125.455 72.1954 125.196 71.8751 125.196H68.8544C68.9706 124.895 69.1494 124.627 69.3957 124.388C70.4008 123.413 72.213 123.171 73.1782 123.113C73.1944 123.113 73.2096 123.114 73.2259 123.114C73.4326 123.114 73.6489 123.108 73.8738 123.096C79.031 122.815 80.008 122.974 80.4776 123.051C80.6213 123.074 80.7571 123.097 80.938 123.097C81.2583 123.097 81.5181 122.837 81.5181 122.516C81.5181 122.196 81.2583 121.936 80.938 121.936C80.8547 121.936 80.794 121.927 80.6644 121.906C80.1163 121.816 79.0962 121.65 73.835 121.936C73.7483 121.934 73.4778 121.931 73.0942 121.954C69.9002 121.924 69.5829 120.334 69.249 118.656L69.2265 118.543C68.8253 116.537 68.9714 112.745 69.3231 110.037C70.0629 104.341 73.2044 102.116 74.1384 101.572C74.7956 102.069 75.5532 102.43 76.3779 102.629C76.8537 102.743 77.3345 102.8 77.8118 102.8C77.8173 102.8 77.8226 102.799 77.828 102.799C78.5294 103.16 78.972 105.199 79.1366 107.623L78.4879 104.796C78.2647 103.823 77.4128 103.144 76.416 103.144C76.2562 103.144 76.0956 103.162 75.9387 103.198L74.9335 103.429C74.3797 103.556 73.9086 103.891 73.6069 104.373C73.3053 104.854 73.209 105.424 73.3362 105.978L75.413 115.029C75.6361 116.001 76.4879 116.68 77.4843 116.68H77.4845C77.6445 116.68 77.8052 116.662 77.9632 116.626L81.3055 115.852C82.5501 117.474 84.2852 117.886 85.6966 118.221ZM87.039 113.333L77.7025 115.495C77.6305 115.512 77.5574 115.52 77.4846 115.52C77.0323 115.52 76.6454 115.212 76.544 114.77L74.4672 105.718C74.4095 105.467 74.453 105.208 74.5902 104.989C74.6353 104.917 74.6893 104.853 74.7495 104.797L75.7081 109.49C75.7642 109.765 76.006 109.955 76.2759 109.955C76.3144 109.955 76.3535 109.951 76.3926 109.943C76.7066 109.879 76.909 109.572 76.845 109.258L75.8544 104.408L76.1984 104.329C76.2702 104.313 76.3435 104.304 76.4161 104.304C76.8687 104.304 77.2556 104.613 77.3571 105.055L78.853 111.574C78.8875 111.724 78.9801 111.855 79.1104 111.936C79.2408 112.018 79.3983 112.045 79.5482 112.01L86.377 110.443C86.4488 110.426 86.5221 110.418 86.5947 110.418C87.0472 110.418 87.4342 110.727 87.5359 111.169L87.7666 112.174C87.8853 112.693 87.5596 113.213 87.039 113.333ZM88.3873 110.239C88.0067 109.639 87.3412 109.258 86.5946 109.258C86.4349 109.258 86.2743 109.276 86.1174 109.312L83.0382 110.019L81.8596 107.497L89.8133 105.658L89.9996 106.057C89.9999 106.057 90.0002 106.057 90.0003 106.058L91.6048 109.49L88.3873 110.239ZM92.3736 108.395L91.3559 106.218L93.3595 105.751L92.3736 108.395Z" fill="#001C18" stroke="#001C18" stroke-width="0.384"/>
<path d="M101.214 88.3699C100.893 88.3699 100.634 88.6295 100.634 88.95V106.967C100.634 107.288 100.893 107.548 101.214 107.548C101.534 107.548 101.794 107.288 101.794 106.967V88.95C101.794 88.6295 101.534 88.3699 101.214 88.3699Z" fill="#001C18" stroke="#001C18" stroke-width="0.384"/>
<path d="M101.214 109.867C100.893 109.867 100.634 110.127 100.634 110.447V115.296C100.634 115.616 100.893 115.876 101.214 115.876C101.534 115.876 101.794 115.616 101.794 115.296V110.447C101.794 110.127 101.534 109.867 101.214 109.867Z" fill="#001C18" stroke="#001C18" stroke-width="0.384"/>
</g>
<defs>
<clipPath id="clip0_386_97">
<rect width="67" height="67" fill="white" transform="translate(50 63)"/>
</clipPath>
</defs>
</svg>
