<svg width="27" height="27" viewBox="0 0 27 27" fill="none" xmlns="http://www.w3.org/2000/svg">
<g clip-path="url(#clip0_139_2132)">
<path d="M20.0978 21.5857C20.4608 22.4175 19.8968 23.379 20.652 24.828C21.468 26.3932 23.3918 26.9287 24.621 26.9407C25.4295 26.949 25.5128 26.6055 25.1903 26.4405C24.6795 26.1787 24.7418 25.7872 24.7418 25.7872C24.7418 25.7872 25.0898 26.109 25.7228 26.2845C26.1885 26.4142 26.703 26.4465 26.8613 26.0002C26.9978 25.6177 25.626 25.8937 24.993 24.5347C25.812 24.9052 26.262 24.7027 26.6025 24.4215C26.7953 24.2617 26.9423 23.9527 26.6843 24.0465C26.4263 24.1402 24.657 24.3397 24.399 22.5C25.215 23.4232 26.2005 23.3415 26.6633 23.031C26.9655 22.8277 27.0405 22.4287 26.7458 22.5652C25.6793 23.0572 25.2075 22.1107 24.5145 21.1732C23.6798 20.043 22.3125 20.4262 21.75 20.1802C21.543 20.0887 20.0978 21.5857 20.0978 21.5857Z" fill="#EBDEC2"/>
<path d="M7.56527 5.13824C7.88771 5.46048 8.06893 5.89761 8.06907 6.35346C8.06921 6.80932 7.88826 7.24656 7.56602 7.56899C7.24378 7.89143 6.80665 8.07265 6.3508 8.07279C5.89495 8.07293 5.45771 7.89198 5.13527 7.56974C4.81283 7.2475 4.63161 6.81038 4.63147 6.35452C4.63133 5.89867 4.81228 5.46143 5.13452 5.13899C5.45676 4.81656 5.89389 4.63533 6.34974 4.63519C6.80559 4.63505 7.24283 4.816 7.56527 5.13824Z" fill="#EBDEC2"/>
<path d="M5.42027 7.66351C5.74251 7.98555 5.92362 8.4224 5.92376 8.87798C5.9239 9.33355 5.74306 9.77052 5.42102 10.0928C5.09898 10.415 4.66212 10.5961 4.20655 10.5962C3.75098 10.5964 3.31401 10.4155 2.99177 10.0935C2.66953 9.77147 2.48842 9.33461 2.48828 8.87904C2.48814 8.42346 2.66898 7.98649 2.99102 7.66426C3.31306 7.34202 3.74992 7.16091 4.20549 7.16077C4.66106 7.16063 5.09803 7.34147 5.42027 7.66351Z" fill="#EBDEC2"/>
<path d="M3.78826 10.548C3.94791 10.7075 4.07456 10.8969 4.16097 11.1054C4.24738 11.3139 4.29185 11.5373 4.29185 11.763C4.29185 11.9887 4.24738 12.2121 4.16097 12.4206C4.07456 12.6291 3.94791 12.8185 3.78826 12.978C3.62876 13.1376 3.43935 13.2643 3.23088 13.3507C3.0224 13.4371 2.79894 13.4816 2.57326 13.4816C2.34759 13.4816 2.12413 13.4371 1.91565 13.3507C1.70717 13.2643 1.51777 13.1376 1.35826 12.978C1.19862 12.8185 1.07197 12.6291 0.985559 12.4206C0.899151 12.2121 0.854675 11.9887 0.854675 11.763C0.854675 11.5373 0.899151 11.3139 0.985559 11.1054C1.07197 10.8969 1.19862 10.7075 1.35826 10.548C1.51777 10.3883 1.70717 10.2617 1.91565 10.1753C2.12413 10.0889 2.34759 10.0444 2.57326 10.0444C2.79894 10.0444 3.0224 10.0889 3.23088 10.1753C3.43935 10.2617 3.62876 10.3883 3.78826 10.548Z" fill="#EBDEC2"/>
<path d="M3.02928 13.7378C3.18883 13.8975 3.31536 14.0871 3.40163 14.2958C3.48791 14.5044 3.53224 14.728 3.53211 14.9538C3.53197 15.1796 3.48736 15.4032 3.40082 15.6117C3.31429 15.8202 3.18753 16.0097 3.02778 16.1693C2.86802 16.3288 2.67841 16.4553 2.46975 16.5416C2.2611 16.6279 2.0375 16.6722 1.81171 16.6721C1.58593 16.672 1.36238 16.6273 1.15384 16.5408C0.945291 16.4543 0.755831 16.3275 0.596275 16.1678C0.274037 15.8451 0.0931638 15.4077 0.0934452 14.9517C0.0937265 14.4957 0.275139 14.0585 0.597775 13.7363C0.920411 13.414 1.35784 13.2331 1.81384 13.2334C2.26983 13.2337 2.70704 13.4151 3.02928 13.7378Z" fill="#EBDEC2"/>
<path d="M3.37051 17.0025C3.53002 17.162 3.65655 17.3514 3.74287 17.5598C3.8292 17.7682 3.87363 17.9916 3.87363 18.2171C3.87363 18.4427 3.8292 18.6661 3.74287 18.8745C3.65655 19.0829 3.53002 19.2723 3.37051 19.4318C3.21101 19.5913 3.02164 19.7178 2.81324 19.8041C2.60483 19.8904 2.38146 19.9349 2.15589 19.9349C1.93031 19.9349 1.70694 19.8904 1.49854 19.8041C1.29013 19.7178 1.10077 19.5913 0.941263 19.4318C0.781727 19.2723 0.655174 19.0829 0.568832 18.8745C0.48249 18.6661 0.438049 18.4427 0.438049 18.2171C0.438049 17.9916 0.48249 17.7682 0.568832 17.5598C0.655174 17.3514 0.781727 17.162 0.941263 17.0025C1.10075 16.843 1.29011 16.7164 1.49852 16.6301C1.70693 16.5437 1.9303 16.4993 2.15589 16.4993C2.38147 16.4993 2.60485 16.5437 2.81326 16.6301C3.02166 16.7164 3.21102 16.843 3.37051 17.0025Z" fill="#EBDEC2"/>
<path d="M5.13603 19.7168C5.29559 19.8762 5.42217 20.0655 5.50856 20.2739C5.59495 20.4823 5.63945 20.7057 5.63952 20.9312C5.63959 21.1568 5.59523 21.3802 5.50897 21.5886C5.42271 21.7971 5.29624 21.9865 5.13678 22.146C4.97732 22.3056 4.788 22.4322 4.57962 22.5185C4.37124 22.6049 4.14789 22.6494 3.92231 22.6495C3.69673 22.6496 3.47335 22.6052 3.26492 22.5189C3.05649 22.4327 2.86709 22.3062 2.70753 22.1468C2.38529 21.8247 2.20418 21.3879 2.20404 20.9323C2.2039 20.4767 2.38474 20.0397 2.70678 19.7175C3.02882 19.3953 3.46568 19.2142 3.92125 19.214C4.37682 19.2139 4.81379 19.3947 5.13603 19.7168Z" fill="#EBDEC2"/>
<path d="M8.19226 20.7608C8.3519 20.9203 8.47855 21.1097 8.56496 21.3181C8.65137 21.5266 8.69584 21.7501 8.69584 21.9758C8.69584 22.2014 8.65137 22.4249 8.56496 22.6334C8.47855 22.8419 8.3519 23.0313 8.19226 23.1908C8.03275 23.3504 7.84335 23.4771 7.63487 23.5635C7.42639 23.6499 7.20293 23.6943 6.97726 23.6943C6.75158 23.6943 6.52812 23.6499 6.31964 23.5635C6.11116 23.4771 5.92176 23.3504 5.76226 23.1908C5.60261 23.0313 5.47596 22.8419 5.38955 22.6334C5.30314 22.4249 5.25867 22.2014 5.25867 21.9758C5.25867 21.7501 5.30314 21.5266 5.38955 21.3181C5.47596 21.1097 5.60261 20.9203 5.76226 20.7608C5.92176 20.6011 6.11116 20.4745 6.31964 20.3881C6.52812 20.3016 6.75158 20.2572 6.97726 20.2572C7.20293 20.2572 7.42639 20.3016 7.63487 20.3881C7.84335 20.4745 8.03275 20.6011 8.19226 20.7608Z" fill="#EBDEC2"/>
<path d="M11.4953 21.216C11.661 21.3742 11.7935 21.5639 11.8849 21.774C11.9762 21.9841 12.0247 22.2103 12.0274 22.4394C12.0301 22.6685 11.987 22.8958 11.9006 23.108C11.8142 23.3202 11.6862 23.513 11.5242 23.675C11.3623 23.837 11.1695 23.965 10.9574 24.0515C10.7452 24.138 10.5179 24.1812 10.2888 24.1785C10.0597 24.1759 9.83346 24.1275 9.62334 24.0362C9.41321 23.9449 9.22347 23.8125 9.06525 23.6468C8.7552 23.322 8.5845 22.8889 8.58965 22.4399C8.59481 21.991 8.77541 21.5619 9.09283 21.2443C9.41026 20.9268 9.83932 20.7461 10.2883 20.7408C10.7372 20.7355 11.1704 20.9061 11.4953 21.216Z" fill="#EBDEC2"/>
<path d="M14.703 20.8553C14.8626 21.0148 14.9892 21.2041 15.0756 21.4126C15.1621 21.621 15.2066 21.8445 15.2066 22.0701C15.2067 22.2957 15.1623 22.5192 15.076 22.7277C14.9898 22.9362 14.8632 23.1257 14.7037 23.2853C14.5442 23.4449 14.3549 23.5715 14.1464 23.6579C13.938 23.7443 13.7145 23.7888 13.4889 23.7889C13.2633 23.789 13.0398 23.7446 12.8313 23.6583C12.6228 23.572 12.4333 23.4455 12.2737 23.286C11.9668 22.9608 11.7986 22.5287 11.805 22.0815C11.8114 21.6343 11.9918 21.2072 12.3079 20.8909C12.6241 20.5746 13.051 20.3939 13.4982 20.3872C13.9454 20.3806 14.3776 20.5485 14.703 20.8553Z" fill="#EBDEC2"/>
<path d="M17.8545 19.755C18.014 19.9146 18.1405 20.1041 18.2268 20.3126C18.3131 20.5211 18.3575 20.7445 18.3574 20.9702C18.3573 21.1958 18.3128 21.4192 18.2264 21.6277C18.14 21.8361 18.0134 22.0255 17.8538 22.185C17.6942 22.3445 17.5047 22.471 17.2962 22.5573C17.0877 22.6436 16.8643 22.688 16.6386 22.6879C16.413 22.6878 16.1895 22.6433 15.9811 22.5569C15.7727 22.4705 15.5833 22.3439 15.4238 22.1843C15.1016 21.8619 14.9207 21.4248 14.9209 20.9691C14.921 20.5134 15.1022 20.0764 15.4245 19.7543C15.7469 19.4321 16.184 19.2512 16.6397 19.2514C17.0954 19.2515 17.5324 19.4327 17.8545 19.755ZM7.66051 5.42326C7.81997 5.58282 8.0093 5.7094 8.21767 5.79579C8.42605 5.88218 8.64941 5.92668 8.87498 5.92675C9.10056 5.92682 9.32394 5.88246 9.53238 5.7962C9.74081 5.70994 9.93021 5.58347 10.0898 5.42401C10.2493 5.26455 10.3759 5.07523 10.4623 4.86685C10.5487 4.65847 10.5932 4.43512 10.5933 4.20954C10.5933 3.98396 10.549 3.76058 10.4627 3.55215C10.3764 3.34372 10.25 3.15432 10.0905 2.99476C9.76848 2.67252 9.33162 2.49141 8.87605 2.49127C8.42047 2.49113 7.9835 2.67197 7.66127 2.99401C7.33903 3.31605 7.15792 3.75291 7.15778 4.20848C7.15764 4.66405 7.33848 5.10102 7.66051 5.42326Z" fill="#EBDEC2"/>
<path d="M10.5458 3.79124C10.7053 3.95089 10.8947 4.07754 11.1031 4.16395C11.3116 4.25035 11.5351 4.29483 11.7608 4.29483C11.9864 4.29483 12.2099 4.25035 12.4184 4.16395C12.6268 4.07754 12.8162 3.95089 12.9758 3.79124C13.1354 3.63174 13.262 3.44233 13.3485 3.23386C13.4349 3.02538 13.4793 2.80192 13.4793 2.57624C13.4793 2.35057 13.4349 2.1271 13.3485 1.91863C13.262 1.71015 13.1354 1.52075 12.9758 1.36124C12.8162 1.20168 12.6268 1.07512 12.4183 0.988767C12.2098 0.902416 11.9864 0.857971 11.7608 0.857971C11.5351 0.857971 11.3117 0.902416 11.1032 0.988767C10.8947 1.07512 10.7053 1.20168 10.5458 1.36124C10.3862 1.5208 10.2596 1.71022 10.1733 1.91869C10.0869 2.12716 10.0425 2.35059 10.0425 2.57624C10.0425 2.80189 10.0869 3.02532 10.1733 3.23379C10.2596 3.44226 10.3862 3.63168 10.5458 3.79124Z" fill="#EBDEC2"/>
<path d="M13.7347 3.03149C14.057 3.35392 14.4941 3.53515 14.95 3.53529C15.4058 3.53543 15.8431 3.35447 16.1655 3.03224C16.4879 2.71 16.6691 2.27287 16.6693 1.81702C16.6694 1.36116 16.4885 0.923924 16.1662 0.601487C15.844 0.27905 15.4069 0.0978275 14.951 0.0976868C14.4952 0.0975462 14.0579 0.278499 13.7355 0.600737C13.4131 0.922975 13.2318 1.3601 13.2317 1.81596C13.2315 2.27181 13.4125 2.70905 13.7347 3.03149Z" fill="#EBDEC2"/>
<path d="M16.9995 3.37349C17.159 3.53304 17.3483 3.65963 17.5567 3.74602C17.765 3.83241 17.9884 3.87691 18.214 3.87698C18.4396 3.87705 18.6629 3.83268 18.8714 3.74642C19.0798 3.66016 19.2692 3.53369 19.4288 3.37424C19.5883 3.21478 19.7149 3.02546 19.8013 2.81708C19.8877 2.6087 19.9322 2.38534 19.9322 2.15977C19.9323 1.93419 19.888 1.71081 19.8017 1.50238C19.7154 1.29394 19.589 1.10454 19.4295 0.944987C19.1075 0.622749 18.6706 0.441639 18.215 0.441498C17.7595 0.441357 17.3225 0.622198 17.0003 0.944237C16.678 1.26628 16.4969 1.70313 16.4968 2.15871C16.4966 2.61428 16.6775 3.05125 16.9995 3.37349Z" fill="#EBDEC2"/>
<path d="M19.7145 5.13825C20.0366 5.46021 20.4733 5.64109 20.9287 5.64109C21.3842 5.64109 21.8209 5.46021 22.143 5.13825C22.3832 4.89807 22.5469 4.59205 22.6132 4.25887C22.6795 3.92569 22.6455 3.58033 22.5156 3.26646C22.3856 2.95259 22.1654 2.68432 21.883 2.49558C21.6005 2.30683 21.2685 2.20609 20.9287 2.20609C20.589 2.20609 20.2569 2.30683 19.9745 2.49558C19.692 2.68432 19.4719 2.95259 19.3419 3.26646C19.2119 3.58033 19.178 3.92569 19.2443 4.25887C19.3106 4.59205 19.4742 4.89807 19.7145 5.13825Z" fill="#EBDEC2"/>
<path d="M20.7578 8.1945C21.0803 8.51642 21.5174 8.69722 21.9731 8.69722C22.4288 8.69722 22.8659 8.51642 23.1885 8.1945C23.5098 7.87178 23.6902 7.43491 23.6902 6.9795C23.6902 6.52409 23.5098 6.08722 23.1885 5.7645C22.8638 5.45445 22.4306 5.28375 21.9817 5.2889C21.5327 5.29406 21.1036 5.47466 20.7861 5.79208C20.4686 6.10951 20.2878 6.53857 20.2825 6.98752C20.2772 7.43647 20.4478 7.86968 20.7578 8.1945Z" fill="#EBDEC2"/>
<path d="M21.2137 11.4975C21.3732 11.6572 21.5627 11.7838 21.7711 11.8702C21.9796 11.9566 22.2031 12.0011 22.4287 12.0011C22.6544 12.0011 22.8779 11.9566 23.0864 11.8702C23.2948 11.7838 23.4842 11.6572 23.6437 11.4975C23.8838 11.2573 24.0472 10.9512 24.1134 10.6181C24.1795 10.285 24.1454 9.93973 24.0154 9.62599C23.8853 9.31224 23.6652 9.0441 23.3828 8.85544C23.1004 8.66679 22.7684 8.5661 22.4287 8.5661C22.0891 8.5661 21.7571 8.66679 21.4747 8.85544C21.1923 9.0441 20.9722 9.31224 20.8421 9.62599C20.7121 9.93973 20.678 10.285 20.7441 10.6181C20.8103 10.9512 20.9737 11.2573 21.2137 11.4975Z" fill="#EBDEC2"/>
<path d="M20.853 14.7052C21.0125 14.8648 21.2018 14.9914 21.4102 15.0778C21.6186 15.1642 21.8419 15.2087 22.0675 15.2087C22.2931 15.2088 22.5164 15.1644 22.7249 15.0782C22.9333 14.9919 23.1227 14.8655 23.2823 14.706C23.4418 14.5465 23.5684 14.3572 23.6548 14.1488C23.7412 13.9405 23.7857 13.7171 23.7858 13.4915C23.7858 13.2659 23.7415 13.0426 23.6552 12.8341C23.5689 12.6257 23.4425 12.4363 23.283 12.2767C22.961 11.9545 22.5241 11.7734 22.0686 11.7733C21.613 11.7731 21.176 11.954 20.8538 12.276C20.5315 12.598 20.3504 13.0349 20.3503 13.4905C20.3501 13.946 20.531 14.383 20.853 14.7052Z" fill="#EBDEC2"/>
<path d="M19.752 17.8575C19.9116 18.017 20.1011 18.1435 20.3096 18.2298C20.5181 18.3161 20.7415 18.3605 20.9672 18.3604C21.1928 18.3603 21.4162 18.3158 21.6247 18.2294C21.8331 18.143 22.0225 18.0164 22.182 17.8568C22.3415 17.6971 22.468 17.5077 22.5543 17.2992C22.6406 17.0907 22.685 16.8672 22.6849 16.6416C22.6848 16.416 22.6403 16.1925 22.5539 15.9841C22.4675 15.7756 22.3409 15.5863 22.1812 15.4268C21.8589 15.1046 21.4218 14.9237 20.9661 14.9239C20.5104 14.924 20.0734 15.1052 19.7512 15.4275C19.4291 15.7498 19.2482 16.1869 19.2484 16.6427C19.2485 17.0984 19.4297 17.5354 19.752 17.8575Z" fill="#EBDEC2"/>
<path d="M21.1148 18.4373C20.7567 18.0795 20.2713 17.8786 19.7651 17.8786C19.259 17.8786 18.7736 18.0795 18.4155 18.4373C18.2381 18.6144 18.0974 18.8248 18.0013 19.0564C17.9053 19.2879 17.8559 19.5362 17.8559 19.7869C17.8559 20.0376 17.9053 20.2858 18.0013 20.5174C18.0974 20.749 18.2381 20.9594 18.4155 21.1365L20.214 22.0365L22.014 20.2365L21.1148 18.4373Z" fill="#F4900C"/>
</g>
<defs>
<clipPath id="clip0_139_2132">
<rect width="27" height="27" fill="white"/>
</clipPath>
</defs>
</svg>
