<svg width="12" height="8" viewBox="0 0 12 8" fill="none" xmlns="http://www.w3.org/2000/svg">
<path d="M5.19169 1.10833C5.25309 1.05112 5.30234 0.982115 5.3365 0.905449C5.37066 0.828783 5.38903 0.746022 5.39051 0.662103C5.39199 0.578184 5.37656 0.494826 5.34512 0.417003C5.31369 0.339179 5.2669 0.268484 5.20755 0.209135C5.1482 0.149786 5.07751 0.102999 4.99968 0.0715651C4.92186 0.0401309 4.8385 0.0246939 4.75458 0.0261745C4.67067 0.0276552 4.5879 0.0460231 4.51124 0.0801831C4.43457 0.114343 4.36557 0.163595 4.30835 0.225001L0.97502 3.55833C0.857977 3.67552 0.792236 3.83438 0.792236 4C0.792236 4.16563 0.857977 4.32448 0.97502 4.44167L4.30835 7.775C4.36557 7.83641 4.43457 7.88566 4.51124 7.91982C4.5879 7.95398 4.67067 7.97235 4.75458 7.97383C4.8385 7.97531 4.92186 7.95987 4.99968 7.92844C5.07751 7.897 5.1482 7.85021 5.20755 7.79087C5.2669 7.73152 5.31369 7.66082 5.34512 7.583C5.37656 7.50517 5.39199 7.42182 5.39051 7.3379C5.38903 7.25398 5.37066 7.17122 5.3365 7.09455C5.30234 7.01789 5.25309 6.94889 5.19169 6.89167L2.92502 4.625H11C11.1658 4.625 11.3248 4.55915 11.442 4.44194C11.5592 4.32473 11.625 4.16576 11.625 4C11.625 3.83424 11.5592 3.67527 11.442 3.55806C11.3248 3.44085 11.1658 3.375 11 3.375H2.92502L5.19169 1.10833Z" fill="black"/>
</svg>
