<svg width="13" height="13" viewBox="0 0 13 13" fill="none" xmlns="http://www.w3.org/2000/svg">
<path d="M12.1564 2.53718C12.5469 2.14666 12.5469 1.5135 12.1564 1.12297C11.7659 0.732447 11.1327 0.732447 10.7422 1.12297L6.50008 5.36508L2.25797 1.12297C1.86744 0.732447 1.23428 0.732447 0.843755 1.12297C0.453231 1.5135 0.453231 2.14666 0.843755 2.53718L5.08587 6.7793L0.842698 11.0225C0.452173 11.413 0.452174 12.0462 0.842698 12.4367C1.23322 12.8272 1.86639 12.8272 2.25691 12.4367L6.50008 8.19351L10.7432 12.4367C11.1338 12.8272 11.7669 12.8272 12.1575 12.4367C12.548 12.0462 12.548 11.413 12.1575 11.0225L7.91429 6.7793L12.1564 2.53718Z" fill="#280A82"/>
</svg>
