<svg width="12" height="12" viewBox="0 0 12 12" fill="none" xmlns="http://www.w3.org/2000/svg">
<path d="M11.6066 1.70711C11.9971 1.31658 11.9971 0.683418 11.6066 0.292893C11.2161 -0.0976311 10.5829 -0.0976311 10.1924 0.292893L5.95028 4.53501L1.70816 0.292893C1.31764 -0.0976311 0.684475 -0.0976311 0.29395 0.292893C-0.0965739 0.683418 -0.0965739 1.31658 0.29395 1.70711L4.53606 5.94922L0.292893 10.1924C-0.0976312 10.5829 -0.0976309 11.2161 0.292893 11.6066C0.683418 11.9971 1.31658 11.9971 1.70711 11.6066L5.95028 7.36343L10.1934 11.6066C10.584 11.9971 11.2171 11.9971 11.6077 11.6066C11.9982 11.2161 11.9982 10.5829 11.6077 10.1924L7.36449 5.94922L11.6066 1.70711Z" fill="#D8B74E"/>
</svg>
