<svg width="35" height="74" viewBox="0 0 35 74" fill="none" xmlns="http://www.w3.org/2000/svg">
<path fill-rule="evenodd" clip-rule="evenodd" d="M20.2332 71.4605C19.9869 72.0355 19.5773 72.5255 19.0551 72.8699C18.533 73.2143 17.9212 73.3979 17.2957 73.3979C16.6702 73.3979 16.0584 73.2143 15.5363 72.8699C15.0141 72.5255 14.6045 72.0355 14.3582 71.4605L0.558922 39.2139C0.219422 38.4192 0.0445226 37.564 0.0449226 36.6999C0.0453226 35.8357 0.220923 34.9806 0.561223 34.1863L14.3582 1.93745C14.6045 1.36246 15.0141 0.872381 15.5363 0.52798C16.0584 0.183578 16.6702 0 17.2957 0C17.9212 0 18.533 0.183579 19.0551 0.52798C19.5773 0.872381 19.9869 1.36246 20.2332 1.93746L34.0279 34.184C34.3682 34.9784 34.5438 35.8335 34.5442 36.6976C34.5446 37.5617 34.3697 38.417 34.0302 39.2116L20.2332 71.4605ZM6.92422 36.699C6.87112 36.6986 6.81892 36.7114 6.77202 36.7363C6.72522 36.7612 6.68532 36.7974 6.65592 36.8416C6.62662 36.8857 6.60862 36.9365 6.60382 36.9893C6.59902 37.0421 6.60732 37.0953 6.62822 37.1441L17.2957 62.0787L27.9632 37.1441C27.9845 37.0954 27.9932 37.0422 27.9888 36.9892C27.9843 36.9363 27.9666 36.8853 27.9375 36.8409C27.9083 36.7964 27.8685 36.76 27.8217 36.7348C27.7749 36.7097 27.7226 36.6966 27.6695 36.6967L6.92422 36.699Z" fill="#FB3748"/>
</svg>
