<svg width="16" height="14" viewBox="0 0 16 14" fill="none" xmlns="http://www.w3.org/2000/svg">
<path d="M3 9C4.38071 9 5.5 10.1193 5.5 11.5C5.5 12.8807 4.38071 14 3 14C1.61929 14 0.5 12.8807 0.5 11.5C0.5 10.1193 1.61929 9 3 9ZM13 9C14.3807 9 15.5 10.1193 15.5 11.5C15.5 12.8807 14.3807 14 13 14C11.6193 14 10.5 12.8807 10.5 11.5C10.5 10.1193 11.6193 9 13 9ZM3 0C4.38071 3.22128e-08 5.5 1.11929 5.5 2.5C5.5 3.88071 4.38071 5 3 5C1.61929 5 0.5 3.88071 0.5 2.5C0.5 1.11929 1.61929 0 3 0ZM13 0C14.3807 3.22128e-08 15.5 1.11929 15.5 2.5C15.5 3.88071 14.3807 5 13 5C11.6193 5 10.5 3.88071 10.5 2.5C10.5 1.11929 11.6193 0 13 0Z" fill="#1C7C8B"/>
</svg>
