<svg width="163" height="159" viewBox="0 0 163 159" fill="none" xmlns="http://www.w3.org/2000/svg">
<rect width="163" height="159" rx="23" fill="#D2F3F8" fill-opacity="0.3"/>
<mask id="mask0_386_92" style="mask-type:alpha" maskUnits="userSpaceOnUse" x="0" y="0" width="163" height="159">
<rect width="163" height="159" rx="23" fill="#E2F6F8"/>
</mask>
<g mask="url(#mask0_386_92)">
<path d="M117.371 109.462C171.244 49.1193 203.291 61.7729 222.609 81.1916L212.169 168.67L-52.4906 176.834L-61.9526 113.095C-17.9392 140.726 69.9095 162.623 117.371 109.462Z" fill="#D2F3F8"/>
</g>
<g clip-path="url(#clip0_386_92)">
<path d="M38.6797 121.424H85.0859" stroke="url(#paint0_linear_386_92)" stroke-width="0.75" stroke-miterlimit="10" stroke-linecap="round"/>
<path d="M47.9609 114.061H94.3672" stroke="url(#paint1_linear_386_92)" stroke-width="0.75" stroke-miterlimit="10" stroke-linecap="round"/>
</g>
<path d="M87.3668 75.7497L92.3759 73.0642C92.4369 73.0332 92.5053 73.0177 92.5744 73.0193C92.6435 73.0209 92.711 73.0395 92.7704 73.0733L97.7446 75.7583C97.8201 75.7979 97.9071 75.8131 97.9925 75.8019C98.0779 75.7906 98.1572 75.7534 98.2186 75.6957C98.2801 75.6381 98.3204 75.5631 98.3336 75.4819C98.3468 75.4008 98.3322 75.3177 98.2919 75.245L95.4742 70.4711C95.4416 70.413 95.4254 70.3478 95.427 70.2819C95.4287 70.2161 95.4482 70.1517 95.4837 70.0951L98.2953 65.334C98.3408 65.2601 98.3589 65.1738 98.3467 65.0889C98.3345 65.004 98.2928 64.9255 98.2282 64.866C98.1636 64.8064 98.0798 64.7693 97.9904 64.7606C97.901 64.7518 97.8111 64.772 97.7351 64.8178L92.7534 67.5183C92.6924 67.5493 92.624 67.5648 92.5548 67.5632C92.4857 67.5616 92.4182 67.543 92.3588 67.5092L87.3632 64.8296C87.2876 64.7901 87.2006 64.7748 87.1152 64.7861C87.0298 64.7974 86.9505 64.8346 86.8891 64.8922C86.8276 64.9499 86.7873 65.0248 86.7741 65.106C86.7609 65.1872 86.7755 65.2703 86.8158 65.343L89.6551 70.1114C89.6876 70.1695 89.7039 70.2347 89.7022 70.3006C89.7005 70.3664 89.681 70.4308 89.6455 70.4874L86.8282 75.228C86.7867 75.3 86.7707 75.3829 86.7825 75.4643C86.7944 75.5457 86.8334 75.6212 86.8939 75.6798C86.9544 75.7384 87.033 75.7768 87.1182 75.7894C87.2034 75.802 87.2906 75.788 87.3668 75.7497Z" fill="url(#paint2_linear_386_92)" stroke="#FCD34D" stroke-width="0.0625" stroke-linecap="round" stroke-linejoin="round"/>
<path d="M117.535 80.8983L123.526 80.9743C123.598 80.9722 123.67 80.9879 123.733 81.0198C123.797 81.0518 123.851 81.0989 123.89 81.1566L126.933 86.0694C126.981 86.1379 127.051 86.1903 127.133 86.2191C127.214 86.248 127.303 86.252 127.387 86.2306C127.471 86.2092 127.546 86.1633 127.601 86.0995C127.657 86.0357 127.69 85.957 127.696 85.8744L127.776 80.1643C127.774 80.0956 127.79 80.0276 127.824 79.9668C127.857 79.906 127.907 79.8545 127.967 79.8172L133.122 76.9177C133.194 76.8712 133.249 76.8045 133.279 76.7269C133.31 76.6492 133.314 76.5645 133.291 76.4845C133.269 76.4045 133.221 76.3332 133.154 76.2804C133.087 76.2276 133.004 76.196 132.918 76.1899L126.926 76.114C126.854 76.1161 126.783 76.1004 126.719 76.0684C126.655 76.0365 126.601 75.9894 126.562 75.9317L123.52 71.0188C123.471 70.9503 123.401 70.898 123.319 70.8691C123.238 70.8402 123.149 70.8362 123.065 70.8577C122.981 70.8791 122.906 70.9249 122.851 70.9887C122.796 71.0525 122.762 71.1312 122.756 71.2138L122.676 76.924C122.678 76.9926 122.662 77.0606 122.628 77.1214C122.595 77.1823 122.546 77.2338 122.485 77.2711L117.33 80.1705C117.258 80.217 117.203 80.2837 117.173 80.3614C117.143 80.439 117.139 80.5237 117.161 80.6037C117.184 80.6837 117.232 80.7551 117.299 80.8078C117.366 80.8606 117.448 80.8922 117.535 80.8983Z" fill="url(#paint3_linear_386_92)" stroke="#FCD34D" stroke-width="0.0625" stroke-linecap="round" stroke-linejoin="round"/>
<path d="M111.44 44.2215L114.844 44.2647C114.885 44.2635 114.925 44.2724 114.961 44.2906C114.998 44.3087 115.028 44.3355 115.051 44.3683L116.779 47.1593C116.807 47.1982 116.846 47.2279 116.893 47.2443C116.939 47.2607 116.989 47.263 117.037 47.2508C117.085 47.2386 117.127 47.2126 117.159 47.1764C117.19 47.1401 117.209 47.0954 117.213 47.0485L117.258 43.8046C117.257 43.7656 117.266 43.7269 117.285 43.6924C117.304 43.6578 117.332 43.6285 117.367 43.6074L120.295 41.9602C120.336 41.9338 120.367 41.8959 120.384 41.8518C120.402 41.8077 120.404 41.7595 120.391 41.7141C120.379 41.6686 120.351 41.6281 120.313 41.5981C120.275 41.5681 120.228 41.5502 120.179 41.5467L116.775 41.5036C116.734 41.5048 116.694 41.4958 116.658 41.4777C116.621 41.4595 116.591 41.4328 116.568 41.4L114.84 38.609C114.812 38.5701 114.773 38.5404 114.726 38.5239C114.68 38.5075 114.629 38.5053 114.582 38.5174C114.534 38.5296 114.492 38.5557 114.46 38.5919C114.429 38.6282 114.41 38.6729 114.406 38.7198L114.361 41.9637C114.362 42.0027 114.353 42.0414 114.334 42.0759C114.315 42.1105 114.287 42.1397 114.252 42.1609L111.324 43.8081C111.283 43.8345 111.252 43.8724 111.235 43.9165C111.217 43.9606 111.215 44.0087 111.228 44.0542C111.24 44.0996 111.268 44.1402 111.306 44.1702C111.344 44.2002 111.391 44.2181 111.44 44.2215Z" fill="url(#paint4_linear_386_92)" stroke="#FCD34D" stroke-width="0.0625" stroke-linecap="round" stroke-linejoin="round"/>
<g clip-path="url(#clip1_386_92)">
<path d="M87.9524 88.7206C82.9094 90.0358 77.5249 89.3905 72.9806 86.9263C68.4362 84.4622 65.1032 80.3806 63.7129 75.577C63.285 74.0461 63.0657 72.4689 63.0605 70.8846C58.5266 72.5375 54.7927 75.7276 52.5752 79.843C50.3577 83.9585 49.8126 88.7093 51.0446 93.1842C52.4349 97.9877 55.768 102.069 60.3123 104.534C64.8567 106.998 70.2411 107.643 75.2841 106.328C84.2158 104.047 90.0889 96.3965 90.033 88.0868C89.3539 88.3396 88.6612 88.5575 87.9578 88.7398L87.9524 88.7206Z" fill="url(#paint5_linear_386_92)" stroke="#72B9D5" stroke-width="0.140625" stroke-linecap="round" stroke-linejoin="round"/>
</g>
<defs>
<linearGradient id="paint0_linear_386_92" x1="-nan" y1="-nan" x2="-nan" y2="-nan" gradientUnits="userSpaceOnUse">
<stop stop-color="#D4D7DD"/>
<stop offset="0.5" stop-color="#D4D7DD"/>
<stop offset="1" stop-color="#BEC1C6"/>
</linearGradient>
<linearGradient id="paint1_linear_386_92" x1="-nan" y1="-nan" x2="-nan" y2="-nan" gradientUnits="userSpaceOnUse">
<stop stop-color="#D4D7DD"/>
<stop offset="0.5" stop-color="#D4D7DD"/>
<stop offset="1" stop-color="#BEC1C6"/>
</linearGradient>
<linearGradient id="paint2_linear_386_92" x1="86.8941" y1="64.8835" x2="97.6899" y2="76.2183" gradientUnits="userSpaceOnUse">
<stop stop-color="#FCD966"/>
<stop offset="0.5" stop-color="#FCD966"/>
<stop offset="1" stop-color="#FCCD34"/>
</linearGradient>
<linearGradient id="paint3_linear_386_92" x1="120.063" y1="73.6223" x2="129.893" y2="83.9389" gradientUnits="userSpaceOnUse">
<stop stop-color="#FCD966"/>
<stop offset="0.5" stop-color="#FCD966"/>
<stop offset="1" stop-color="#FCCD34"/>
</linearGradient>
<linearGradient id="paint4_linear_386_92" x1="112.876" y1="40.088" x2="118.461" y2="45.9489" gradientUnits="userSpaceOnUse">
<stop stop-color="#FCD966"/>
<stop offset="0.5" stop-color="#FCD966"/>
<stop offset="1" stop-color="#FCCD34"/>
</linearGradient>
<linearGradient id="paint5_linear_386_92" x1="54.3263" y1="76.9285" x2="80.7876" y2="104.686" gradientUnits="userSpaceOnUse">
<stop stop-color="#86C3DB"/>
<stop offset="0.5" stop-color="#86C3DB"/>
<stop offset="1" stop-color="#5EAFCF"/>
</linearGradient>
<clipPath id="clip0_386_92">
<rect width="51.0469" height="11.0453" fill="white" transform="translate(41 112.22)"/>
</clipPath>
<clipPath id="clip1_386_92">
<rect width="39.877" height="38.2507" fill="white" transform="matrix(0.968906 -0.247429 0.270655 0.962676 46 75.4771)"/>
</clipPath>
</defs>
</svg>
