<svg width="34" height="25" viewBox="0 0 34 25" fill="none" xmlns="http://www.w3.org/2000/svg">
<rect x="0.5" y="0.125" width="33" height="24.75" rx="8" fill="#FAF7F0"/>
<path d="M29.7878 11.675L28.1254 14.15L26.4878 11.675H29.7878Z" fill="#1C7C8B"/>
<path d="M13.6998 3.21875C12.0601 3.21875 10.5442 3.65187 9.21387 4.36344V20.6056C10.5442 21.3481 12.0601 21.7812 13.6998 21.7812C18.8354 21.7812 22.9811 17.6356 22.9811 12.5C22.9811 7.36437 18.8354 3.21875 13.6998 3.21875Z" fill="#C94747"/>
<path d="M13.6998 3.21875C12.0601 3.21875 10.5442 3.65187 9.21387 4.36344V20.6056C10.5442 21.3481 12.0601 21.7812 13.6998 21.7812C18.8354 21.7812 22.9811 17.6356 22.9811 12.5C22.9811 7.36437 18.8354 3.21875 13.6998 3.21875Z" fill="#C94747"/>
<path opacity="0.33" d="M13.6998 3.21875C12.0601 3.21875 10.5442 3.65187 9.21387 4.36344V20.6056C10.5442 21.3481 12.0601 21.7812 13.6998 21.7812C18.8354 21.7812 22.9811 17.6356 22.9811 12.5C22.9811 7.36437 18.8354 3.21875 13.6998 3.21875Z" fill="#9450E0"/>
<path opacity="0.33" d="M13.6998 3.21875C12.0601 3.21875 10.5442 3.65187 9.21387 4.36344V20.6056C10.5442 21.3481 12.0601 21.7812 13.6998 21.7812C18.8354 21.7812 22.9811 17.6356 22.9811 12.5C22.9811 7.36437 18.8354 3.21875 13.6998 3.21875Z" fill="#B84A79"/>
<path d="M4.41846 12.5C4.41846 15.9959 6.36752 19.0278 9.21377 20.6366L12.4622 19.925L9.36846 18.9969L12.4622 18.0687L9.36846 17.1406L12.4622 16.2125L9.36846 15.2844L12.4622 14.3562L9.36846 13.4281L12.4622 12.5L9.36846 11.5719L12.4622 10.6437L9.36846 9.71562L12.4622 8.7875L9.36846 7.85937L12.4622 6.93125L9.36846 6.00312L12.4622 5.075L9.21377 4.36343C6.36752 5.97218 4.41846 9.00406 4.41846 12.5Z" fill="#F9F9F9"/>
<path d="M4.41846 12.5C4.41846 15.9959 6.36752 19.0278 9.21377 20.6366L12.4622 19.925L9.36846 18.9969L12.4622 18.0687L9.36846 17.1406L12.4622 16.2125L9.36846 15.2844L12.4622 14.3562L9.36846 13.4281L12.4622 12.5L9.36846 11.5719L12.4622 10.6437L9.36846 9.71562L12.4622 8.7875L9.36846 7.85937L12.4622 6.93125L9.36846 6.00312L12.4622 5.075L9.21377 4.36343C6.36752 5.97218 4.41846 9.00406 4.41846 12.5Z" fill="white"/>
</svg>
