<svg width="65" height="65" viewBox="0 0 65 65" fill="none" xmlns="http://www.w3.org/2000/svg">
<path d="M32.6992 59.6377L4.11922 58.0077C3.73519 57.9854 3.37423 57.8171 3.11024 57.5373C2.84625 57.2575 2.69921 56.8874 2.69922 56.5027V15.0827C2.69922 14.4277 3.12422 13.8427 3.75422 13.6477L32.6992 4.50269V59.6377Z" fill="#2F2F2F"/>
<path d="M61.2792 58.0077L32.6992 59.6377V4.50269L61.6442 13.6427C62.2692 13.8427 62.6992 14.4227 62.6992 15.0777V56.5027C62.6992 57.3027 62.0742 57.9627 61.2792 58.0077Z" fill="#454A4C"/>
<path d="M62.6992 26.7575L32.6992 20.2076V15.2375L62.6992 22.8975V26.7575Z" fill="#FBC21A"/>
<path d="M32.6992 25.1125V30.4325L34.8142 30.7375V25.5075L32.6992 25.1125Z" fill="#FFCA28"/>
<path d="M38.644 29.3526C38.639 30.3726 38.169 31.1276 37.604 31.0376C37.034 30.9476 36.579 30.0426 36.589 29.0226C36.594 28.0026 37.064 27.2476 37.629 27.3376C38.194 27.4276 38.649 28.3326 38.644 29.3526Z" fill="#FFCA28"/>
<path d="M38.1944 27.3726C38.1894 27.9826 37.9294 28.4326 37.6044 28.3776C37.2844 28.3226 37.0244 27.7876 37.0294 27.1776C37.0344 26.5676 37.6194 26.1726 37.6194 26.1726C37.6194 26.1726 38.1994 26.7626 38.1944 27.3726Z" fill="#FBC21A"/>
<path d="M50.8642 31.3124C50.8592 32.2324 50.4392 32.9074 49.9292 32.8274C49.4192 32.7474 49.0092 31.9324 49.0142 31.0124C49.0192 30.0924 49.4392 29.4174 49.9492 29.4974C50.4642 29.5774 50.8692 30.3924 50.8642 31.3124Z" fill="#FBC21A"/>
<path d="M50.464 29.5275C50.459 30.0725 50.224 30.4775 49.934 30.4275C49.644 30.3775 49.414 29.8975 49.419 29.3475C49.424 28.8025 49.949 28.4475 49.949 28.4475C49.949 28.4475 50.464 28.9775 50.464 29.5275Z" fill="#FBC21A"/>
<path d="M60.879 32.9127C60.874 33.7277 60.549 34.3327 60.149 34.2577C59.749 34.1827 59.434 33.4627 59.439 32.6477C59.444 31.8327 59.769 31.2277 60.169 31.3027C60.564 31.3777 60.884 32.0977 60.879 32.9127Z" fill="#FBC21A"/>
<path d="M60.564 31.3326C60.559 31.8176 60.379 32.1776 60.154 32.1326C59.929 32.0876 59.749 31.6626 59.754 31.1726C59.759 30.6826 60.164 30.3726 60.164 30.3726C60.164 30.3726 60.569 30.8426 60.564 31.3326Z" fill="#FBC21A"/>
<path d="M40.2542 26.5175V31.5125L47.5842 32.5725V27.8776L40.2542 26.5175ZM52.0942 28.7175V33.2225L58.2992 34.1226V29.8675L52.0942 28.7175ZM62.6992 30.6825L61.9792 30.5525V34.6576L62.6992 34.7525V30.6825ZM32.6992 25.1125V30.4325L34.8142 30.7375V25.5075L32.6992 25.1125Z" fill="#FBC21A"/>
<path d="M32.6992 20.2076L2.69922 26.7575V22.8975L32.6992 15.2375V20.2076Z" fill="#F79329"/>
<path d="M26.7544 29.3526C26.7594 30.3726 27.2294 31.1276 27.7944 31.0376C28.3644 30.9476 28.8194 30.0426 28.8094 29.0226C28.8044 28.0026 28.3344 27.2476 27.7694 27.3376C27.2044 27.4276 26.7494 28.3326 26.7544 29.3526Z" fill="#F79329"/>
<path d="M27.2046 27.3726C27.2096 27.9826 27.4696 28.4326 27.7946 28.3776C28.1146 28.3226 28.3746 27.7876 28.3696 27.1776C28.3646 26.5676 27.7796 26.1726 27.7796 26.1726C27.7796 26.1726 27.1996 26.7626 27.2046 27.3726Z" fill="#F79329"/>
<path d="M14.5342 31.3126C14.5392 32.2326 14.9592 32.9076 15.4692 32.8276C15.9792 32.7476 16.3892 31.9326 16.3842 31.0126C16.3792 30.0926 15.9592 29.4176 15.4492 29.4976C14.9392 29.5776 14.5292 30.3926 14.5342 31.3126Z" fill="#FF8F00"/>
<path d="M14.9341 29.5275C14.9391 30.0725 15.1741 30.4775 15.4641 30.4275C15.7541 30.3775 15.9841 29.8975 15.9791 29.3475C15.9741 28.8025 15.4491 28.4475 15.4491 28.4475C15.4491 28.4475 14.9341 28.9775 14.9341 29.5275Z" fill="#F79329"/>
<path d="M4.5191 32.9127C4.5241 33.7277 4.8491 34.3327 5.2491 34.2577C5.6491 34.1827 5.9641 33.4627 5.9591 32.6477C5.9541 31.8327 5.6291 31.2277 5.2291 31.3027C4.8341 31.3777 4.5141 32.0977 4.5191 32.9127Z" fill="#FF8F00"/>
<path d="M4.83403 31.3326C4.83903 31.8176 5.01903 32.1776 5.24403 32.1326C5.46903 32.0876 5.64903 31.6626 5.64403 31.1726C5.63903 30.6826 5.23403 30.3726 5.23403 30.3726C5.23403 30.3726 4.82903 30.8426 4.83403 31.3326ZM25.144 26.5176V31.5126L17.814 32.5726V27.8776L25.144 26.5176ZM13.304 28.7176V33.2226L7.09903 34.1226V29.8676L13.304 28.7176Z" fill="#F79329"/>
<path d="M2.69922 30.6825L3.41922 30.5525V34.6575L2.69922 34.7525V30.6825Z" fill="#FF8F00"/>
<path d="M32.699 25.1125L30.604 25.5026V30.7325L32.699 30.4325V25.1125Z" fill="#F79329"/>
<path d="M32.6994 17.2175C29.8644 17.2175 28.8594 19.7025 25.2394 20.4275C21.6994 21.1375 21.4894 19.6375 18.6994 20.2175C15.8794 20.8075 16.2594 22.5725 13.5094 23.0725C10.7444 23.5775 10.7794 22.2175 8.11436 22.7625C5.51436 23.2925 5.24436 25.2775 2.71436 25.2775" stroke="#FFB300" stroke-width="0.25" stroke-miterlimit="10"/>
<path d="M32.6992 17.2175C35.5342 17.2175 36.5392 19.7025 40.1592 20.4275C43.6992 21.1375 43.9092 19.6375 46.6992 20.2175C49.5192 20.8075 49.4092 22.6775 52.1592 23.1775C54.9242 23.6825 54.6192 22.2175 57.2842 22.7625C59.8842 23.2925 60.1542 25.2775 62.6842 25.2775" stroke="#FFA000" stroke-width="0.25" stroke-miterlimit="10"/>
</svg>
