<svg width="163" height="160" viewBox="0 0 163 160" fill="none" xmlns="http://www.w3.org/2000/svg">
<rect width="163" height="160" rx="23" fill="#EFFFFD"/>
<mask id="mask0_386_96" style="mask-type:alpha" maskUnits="userSpaceOnUse" x="0" y="0" width="163" height="159">
<rect width="163" height="159" rx="23" fill="#E2F6F8"/>
</mask>
<g mask="url(#mask0_386_96)">
<path d="M117.371 109.461C171.244 49.1193 203.291 61.7729 222.609 81.1916L212.169 168.67L-52.4906 176.834L-61.9526 113.095C-17.9392 140.726 69.9095 162.623 117.371 109.461Z" fill="#18C9C3" fill-opacity="0.16"/>
</g>
<path d="M61.7478 96.125C53.5189 86.9375 67.5558 82.3438 71.0802 77.75C74.6072 82.3438 88.6415 86.9375 80.4126 96.125H61.7478ZM94.2145 80.375C88.7788 73.8125 95.8117 70.5312 98.1402 67.25C100.471 70.5312 107.502 73.8125 102.066 80.375H94.2145Z" stroke="black" stroke-width="1.5" stroke-linecap="round" stroke-linejoin="round"/>
<path d="M73.72 71.5996C73.4353 71.8963 73.0938 72.1335 72.7156 72.2971C72.3374 72.4607 71.9301 72.5474 71.5177 72.5523C71.1053 72.5571 70.696 72.4799 70.3141 72.3252C69.9321 72.1704 69.5851 71.9414 69.2934 71.6514C69.0018 71.3614 68.7714 71.0164 68.6158 70.6366C68.4602 70.2568 68.3826 69.8499 68.3874 69.4398C68.3923 69.0297 68.4795 68.6248 68.6441 68.2487C68.8086 67.8726 69.0471 67.5331 69.3455 67.25" stroke="black" stroke-width="1.5" stroke-linecap="round"/>
<path d="M71.0801 72.5V77.75M92.2001 106.625V119.75H58.2576C55.5912 119.75 54.258 119.75 53.4264 118.981C52.6001 118.212 52.6001 116.975 52.6001 114.5V106.625C52.6001 101.674 52.6001 99.2015 54.258 97.6633C55.9133 96.125 58.5797 96.125 63.9151 96.125H80.8851C86.2179 96.125 88.8843 96.125 90.5422 97.6633C92.2001 99.2015 92.2001 101.674 92.2001 106.625Z" stroke="black" stroke-width="1.5" stroke-linecap="round" stroke-linejoin="round"/>
<path d="M86.92 119.75H94.0137C99.6897 119.75 102.53 119.75 104.167 118.023C105.804 116.295 105.524 113.6 104.959 108.205L102.042 80.375H93.7946L91.2285 97.4375M65.8 119.75V114.5C65.7552 106.625 72.4 104 72.4 104C72.4 104 79.0449 106.625 79 114.5V119.75" stroke="black" stroke-width="1.5" stroke-linecap="round" stroke-linejoin="round"/>
<g clip-path="url(#clip0_386_96)">
<path d="M55.6797 139.93H102.086" stroke="url(#paint0_linear_386_96)" stroke-width="0.75" stroke-miterlimit="10" stroke-linecap="round"/>
<path d="M64.9609 131.085H111.367" stroke="url(#paint1_linear_386_96)" stroke-width="0.75" stroke-miterlimit="10" stroke-linecap="round"/>
</g>
<defs>
<linearGradient id="paint0_linear_386_96" x1="-nan" y1="-nan" x2="-nan" y2="-nan" gradientUnits="userSpaceOnUse">
<stop stop-color="#D4D7DD"/>
<stop offset="0.5" stop-color="#D4D7DD"/>
<stop offset="1" stop-color="#BEC1C6"/>
</linearGradient>
<linearGradient id="paint1_linear_386_96" x1="-nan" y1="-nan" x2="-nan" y2="-nan" gradientUnits="userSpaceOnUse">
<stop stop-color="#D4D7DD"/>
<stop offset="0.5" stop-color="#D4D7DD"/>
<stop offset="1" stop-color="#BEC1C6"/>
</linearGradient>
<clipPath id="clip0_386_96">
<rect width="51.0469" height="13.2683" fill="white" transform="translate(58 128.873)"/>
</clipPath>
</defs>
</svg>
