<svg width="28" height="29" viewBox="0 0 28 29" fill="none" xmlns="http://www.w3.org/2000/svg">
<path d="M10.25 1.5H2.75C2.41848 1.5 2.10054 1.63696 1.86612 1.88076C1.6317 2.12456 1.5 2.45522 1.5 2.8V10.6C1.5 10.9448 1.6317 11.2754 1.86612 11.5192C2.10054 11.763 2.41848 11.9 2.75 11.9H10.25C10.5815 11.9 10.8995 11.763 11.1339 11.5192C11.3683 11.2754 11.5 10.9448 11.5 10.6V2.8C11.5 2.45522 11.3683 2.12456 11.1339 1.88076C10.8995 1.63696 10.5815 1.5 10.25 1.5ZM10.25 17.1H2.75C2.41848 17.1 2.10054 17.237 1.86612 17.4808C1.6317 17.7246 1.5 18.0552 1.5 18.4V26.2C1.5 26.5448 1.6317 26.8754 1.86612 27.1192C2.10054 27.363 2.41848 27.5 2.75 27.5H10.25C10.5815 27.5 10.8995 27.363 11.1339 27.1192C11.3683 26.8754 11.5 26.5448 11.5 26.2V18.4C11.5 18.0552 11.3683 17.7246 11.1339 17.4808C10.8995 17.237 10.5815 17.1 10.25 17.1ZM25.25 1.5H17.75C17.4185 1.5 17.1005 1.63696 16.8661 1.88076C16.6317 2.12456 16.5 2.45522 16.5 2.8V10.6C16.5 10.9448 16.6317 11.2754 16.8661 11.5192C17.1005 11.763 17.4185 11.9 17.75 11.9H25.25C25.5815 11.9 25.8995 11.763 26.1339 11.5192C26.3683 11.2754 26.5 10.9448 26.5 10.6V2.8C26.5 2.45522 26.3683 2.12456 26.1339 1.88076C25.8995 1.63696 25.5815 1.5 25.25 1.5Z" fill="white" stroke="white" stroke-width="3" stroke-linejoin="round"/>
</svg>
