<svg width="18" height="18" viewBox="0 0 18 18" fill="none" xmlns="http://www.w3.org/2000/svg">
<path d="M2.5 1.3125C2.5 1.6606 2.3683 1.99444 2.13388 2.24058C1.89946 2.48672 1.58152 2.625 1.25 2.625C0.918479 2.625 0.600537 2.48672 0.366117 2.24058C0.131696 1.99444 0 1.6606 0 1.3125C0 0.964403 0.131696 0.630564 0.366117 0.384422C0.600537 0.138281 0.918479 0 1.25 0C1.58152 0 1.89946 0.138281 2.13388 0.384422C2.3683 0.630564 2.5 0.964403 2.5 1.3125ZM16.25 2.625C16.4142 2.625 16.5767 2.59105 16.7284 2.52509C16.88 2.45913 17.0178 2.36245 17.1339 2.24058C17.25 2.1187 17.342 1.97401 17.4048 1.81477C17.4677 1.65553 17.5 1.48486 17.5 1.3125C17.5 1.14014 17.4677 0.969468 17.4048 0.810228C17.342 0.650988 17.25 0.506299 17.1339 0.384422C17.0178 0.262545 16.88 0.165868 16.7284 0.0999082C16.5767 0.0339489 16.4142 -2.56836e-09 16.25 0C15.9185 5.18704e-09 15.6005 0.138281 15.3661 0.384422C15.1317 0.630564 15 0.964403 15 1.3125C15 1.6606 15.1317 1.99444 15.3661 2.24058C15.6005 2.48672 15.9185 2.625 16.25 2.625ZM1.25 3.5C1.47101 3.5 1.68298 3.59219 1.83926 3.75628C1.99554 3.92038 2.08333 4.14294 2.08333 4.375V8.75H4.03333C3.85 8.20225 3.75 7.6125 3.75 7C3.75 6.12675 4.125 5.3655 4.57833 4.7565C5.035 4.144 5.62333 3.619 6.17833 3.199C6.86226 2.68334 7.58909 2.23352 8.35 1.855L8.39 1.834L8.40167 1.82875H8.405L8.40833 1.827C8.51554 1.77655 8.63169 1.75047 8.74917 1.75047C8.86664 1.75047 8.9828 1.77655 9.09 1.827L9.095 1.82875L9.10667 1.834L9.14667 1.855L9.29167 1.92675C10.0007 2.28951 10.6792 2.71452 11.32 3.19725C11.875 3.619 12.4633 4.14575 12.92 4.7565C13.375 5.3655 13.75 6.12675 13.75 7C13.75 7.6125 13.65 8.20225 13.4667 8.75H15.4167V4.375C15.4167 4.14294 15.5045 3.92038 15.6607 3.75628C15.817 3.59219 16.029 3.5 16.25 3.5C16.471 3.5 16.683 3.59219 16.8393 3.75628C16.9955 3.92038 17.0833 4.14294 17.0833 4.375V15.75C17.0833 16.2141 16.9077 16.6592 16.5952 16.9874C16.2826 17.3156 15.8587 17.5 15.4167 17.5H12.0833C11.6413 17.5 11.2174 17.3156 10.9048 16.9874C10.5923 16.6592 10.4167 16.2141 10.4167 15.75V14C10.4167 13.5359 10.2411 13.0908 9.92851 12.7626C9.61595 12.4344 9.19203 12.25 8.75 12.25C8.30797 12.25 7.88405 12.4344 7.57149 12.7626C7.25893 13.0908 7.08333 13.5359 7.08333 14V15.75C7.08333 16.2141 6.90774 16.6592 6.59518 16.9874C6.28262 17.3156 5.85869 17.5 5.41667 17.5H2.08333C1.64131 17.5 1.21738 17.3156 0.904822 16.9874C0.592261 16.6592 0.416667 16.2141 0.416667 15.75V4.375C0.416667 4.14294 0.504464 3.92038 0.660744 3.75628C0.817025 3.59219 1.02899 3.5 1.25 3.5Z" fill="#D8B74E"/>
</svg>
