<svg width="26" height="26" viewBox="0 0 26 26" fill="none" xmlns="http://www.w3.org/2000/svg">
<path d="M17.3333 6.5C19.7268 6.5 21.6667 5.04512 21.6667 3.25C21.6667 1.45488 19.7268 0 17.3333 0C14.9398 0 13 1.45488 13 3.25C13 5.04512 14.9398 6.5 17.3333 6.5ZM15.2594 15.1201C16.2114 15.9692 17.9001 16.0895 19.0491 15.3852L25.0074 11.7279C26.1645 11.018 26.3338 9.73781 25.3879 8.86996C24.442 8.00109 22.7344 7.87516 21.5753 8.58457L17.6861 10.9713L15.0516 8.61961C14.0061 7.68574 12.396 7.2018 10.7182 7.33332C9.08037 7.45926 7.65443 8.15953 6.90151 9.20816L3.55875 13.8816C1.97438 16.0977 2.97036 18.7754 5.8737 20.1657L8.90771 21.9375H2.70833C1.21266 21.9375 0 22.847 0 23.9688C0 25.0905 1.21266 26 2.70833 26H16.7917C19.0992 26 20.4323 23.8271 18.7065 22.5327L11.268 16.9538L13.6243 13.6596L15.2594 15.1201Z" fill="#EBDEC2"/>
</svg>
