<svg width="311" height="88" viewBox="0 0 311 88" fill="none" xmlns="http://www.w3.org/2000/svg">
<path d="M155.5 0.75C198.413 0.75 237.246 3.57259 265.335 8.13086C279.386 10.411 290.714 13.1204 298.512 16.1123C302.415 17.6097 305.389 19.1617 307.375 20.7363C309.372 22.3203 310.25 23.8285 310.25 25.2344C310.25 26.6402 309.372 28.1485 307.375 29.7324C305.389 31.307 302.415 32.859 298.512 34.3564C290.714 37.3483 279.386 40.0568 265.335 42.3369C237.246 46.8952 198.413 49.7188 155.5 49.7188C112.587 49.7188 73.7544 46.8952 45.665 42.3369C31.6144 40.0568 20.2864 37.3483 12.4883 34.3564C8.58539 32.859 5.61057 31.307 3.625 29.7324C1.6277 28.1485 0.75006 26.6402 0.75 25.2344C0.75 23.8285 1.62773 22.3203 3.625 20.7363C5.61056 19.1617 8.58543 17.6097 12.4883 16.1123C20.2864 13.1204 31.6144 10.411 45.665 8.13086C73.7544 3.57259 112.587 0.75 155.5 0.75Z" stroke="url(#paint0_linear_275_884)" stroke-width="1.5"/>
<ellipse cx="39.2522" cy="41.5622" rx="2.01295" ry="1.97916" fill="#1C7C8B"/>
<ellipse cx="261.683" cy="43.5414" rx="2.01295" ry="1.97916" fill="#1C7C8B"/>
<g filter="url(#filter0_d_275_884)">
<ellipse cx="154.997" cy="49.4788" rx="16.1036" ry="15.8332" fill="#1C7C8B"/>
</g>
<path d="M147.011 50.0876C146.538 49.8194 146.538 49.1384 147.011 48.8701L150.932 46.6444C151.398 46.3795 151.977 46.7166 151.977 47.2532V51.7046C151.977 52.2412 151.398 52.5783 150.932 52.3134L147.011 50.0876Z" fill="white"/>
<path d="M162.982 50.0876C163.455 49.8194 163.455 49.1384 162.982 48.8701L159.061 46.6444C158.595 46.3795 158.016 46.7166 158.016 47.2532V51.7046C158.016 52.2412 158.595 52.5783 159.061 52.3134L162.982 50.0876Z" fill="white"/>
<defs>
<filter id="filter0_d_275_884" x="122.893" y="23.6456" width="64.207" height="63.6665" filterUnits="userSpaceOnUse" color-interpolation-filters="sRGB">
<feFlood flood-opacity="0" result="BackgroundImageFix"/>
<feColorMatrix in="SourceAlpha" type="matrix" values="0 0 0 0 0 0 0 0 0 0 0 0 0 0 0 0 0 0 127 0" result="hardAlpha"/>
<feOffset dy="6"/>
<feGaussianBlur stdDeviation="8"/>
<feComposite in2="hardAlpha" operator="out"/>
<feColorMatrix type="matrix" values="0 0 0 0 0.356863 0 0 0 0 0.619608 0 0 0 0 0.882353 0 0 0 0.4 0"/>
<feBlend mode="normal" in2="BackgroundImageFix" result="effect1_dropShadow_275_884"/>
<feBlend mode="normal" in="SourceGraphic" in2="effect1_dropShadow_275_884" result="shape"/>
</filter>
<linearGradient id="paint0_linear_275_884" x1="155" y1="0.31213" x2="154.835" y2="75.8118" gradientUnits="userSpaceOnUse">
<stop offset="0.15339" stop-color="#F7F7F7"/>
<stop offset="0.469544" stop-color="#1C7C8B"/>
<stop offset="1" stop-color="#1C7C8B"/>
</linearGradient>
</defs>
</svg>
