<svg width="18" height="18" viewBox="0 0 18 18" fill="none" xmlns="http://www.w3.org/2000/svg">
<path d="M1.72729 14.464C1.72729 13.4644 2.12438 12.5058 2.83119 11.799C3.53801 11.0922 4.49665 10.6951 5.49624 10.6951H13.0341C14.0337 10.6951 14.9923 11.0922 15.6992 11.799C16.406 12.5058 16.8031 13.4644 16.8031 14.464C16.8031 14.9638 16.6045 15.4431 16.2511 15.7965C15.8977 16.1499 15.4184 16.3485 14.9186 16.3485H3.61177C3.11197 16.3485 2.63265 16.1499 2.27924 15.7965C1.92584 15.4431 1.72729 14.9638 1.72729 14.464Z" stroke="#1C7C8B" stroke-width="1.5" stroke-linejoin="round"/>
<path d="M9.26518 6.92615C10.8263 6.92615 12.0919 5.66059 12.0919 4.09944C12.0919 2.5383 10.8263 1.27274 9.26518 1.27274C7.70404 1.27274 6.43848 2.5383 6.43848 4.09944C6.43848 5.66059 7.70404 6.92615 9.26518 6.92615Z" stroke="#1C7C8B" stroke-width="1.5"/>
</svg>
