<svg width="27" height="27" viewBox="0 0 27 27" fill="none" xmlns="http://www.w3.org/2000/svg">
<path d="M13.5 0C6.05609 0 0 6.05601 0 13.5C0 20.9439 6.05609 26.9999 13.5 26.9999C20.944 26.9999 27.0001 20.9438 27.0001 13.5C27.0001 6.05609 20.9439 0 13.5 0ZM13.5 25.5164C6.87413 25.5164 1.48362 20.1258 1.48362 13.4999C1.48362 6.87397 6.87413 1.48346 13.5 1.48346C20.1259 1.48346 25.5165 6.87405 25.5165 13.5C25.5165 20.1259 20.1259 25.5164 13.5 25.5164Z" fill="#60501E"/>
<path d="M13.5001 2.17029C7.25293 2.17029 2.17053 7.25269 2.17053 13.4998C2.17053 19.747 7.25293 24.8294 13.5001 24.8294C19.7472 24.8294 24.8296 19.747 24.8296 13.4998C24.8296 7.25269 19.7471 2.17029 13.5001 2.17029ZM24.0261 15.0757L23.2525 14.9394L23.1567 15.4829L23.9308 15.6193C23.8435 16.0493 23.7302 16.47 23.5927 16.8796L22.8545 16.6109L22.6657 17.1295L23.4037 17.3982C23.2431 17.8049 23.0581 18.1992 22.8504 18.5797L22.1719 18.188L21.8961 18.666L22.5734 19.0569C22.3451 19.4283 22.0946 19.7845 21.8239 20.124L21.2265 19.6227L20.8718 20.0455L21.4687 20.5464C21.1805 20.8722 20.8725 21.18 20.5468 21.4684L20.0456 20.8713L19.6229 21.2261L20.1245 21.8235C19.7849 22.0943 19.4287 22.3449 19.0572 22.5732L18.6664 21.896L18.1885 22.1719L18.5799 22.8502C18.1995 23.0577 17.805 23.2428 17.3984 23.4035L17.1297 22.6656L16.6111 22.8544L16.8798 23.5924C16.4701 23.7299 16.0496 23.8433 15.6195 23.9305L15.4829 23.1566L14.9394 23.2525L15.076 24.0259C14.6502 24.0893 14.2166 24.1279 13.7761 24.1392V22.0355H13.2242V24.1392C12.7838 24.1279 12.3499 24.0893 11.9242 24.0259L12.0609 23.2526L11.5175 23.1566L11.3807 23.9305C10.9507 23.8433 10.53 23.7299 10.1203 23.5924L10.3891 22.8545L9.87068 22.6656L9.60188 23.4035C9.19513 23.2428 8.80082 23.0577 8.42031 22.8502L8.81183 22.1719L8.33387 21.896L7.94307 22.5732C7.57165 22.3449 7.21537 22.0943 6.87585 21.8235L7.37724 21.2261L6.95455 20.8713L6.45347 21.4684C6.12774 21.18 5.81986 20.8722 5.53153 20.5464L6.12845 20.0455L5.77369 19.6227L5.17629 20.124C4.90558 19.7845 4.65504 19.4283 4.42683 19.0569L5.10413 18.666L4.82831 18.1881L4.14981 18.5797C3.94217 18.1992 3.7571 17.8049 3.5965 17.3982L4.33441 17.1296L4.14567 16.611L3.4076 16.8796C3.27005 16.47 3.15674 16.0494 3.06951 15.6194L3.84361 15.4829L3.74785 14.9394L2.97422 15.0758C2.91067 14.6501 2.87216 14.2163 2.86083 13.7758H4.96443V13.2239H2.86067C2.872 12.7835 2.91051 12.3498 2.97406 11.924L3.74769 12.0605L3.84346 11.517L3.06935 11.3805C3.15666 10.9505 3.26997 10.5299 3.40744 10.1202L4.14551 10.3888L4.33425 9.8702L3.59634 9.60164C3.7571 9.19497 3.94209 8.80058 4.14965 8.42015L4.82815 8.81174L5.10397 8.33379L4.42667 7.94283C4.65488 7.57148 4.9055 7.21521 5.17613 6.87576L5.77354 7.377L6.12829 6.95422L5.53137 6.45331C5.81962 6.12765 6.12758 5.8197 6.45331 5.53136L6.95455 6.12853L7.37724 5.77377L6.87569 5.17621C7.21522 4.90541 7.57149 4.65487 7.94291 4.42658L8.33371 5.10372L8.81167 4.82783L8.42023 4.14957C8.80066 3.94201 9.19513 3.75693 9.6018 3.59626L9.87044 4.33424L10.3891 4.1455L10.1203 3.40728C10.53 3.26973 10.9506 3.15642 11.3806 3.06919L11.5173 3.84329L12.0608 3.74736L11.9242 2.97374C12.3499 2.91027 12.7835 2.87167 13.224 2.86043V3.64554H13.776V2.86043C14.2164 2.87167 14.6501 2.91027 15.0758 2.97374L14.9392 3.74736L15.4827 3.84329L15.6194 3.06919C16.0494 3.15642 16.47 3.26973 16.8796 3.4072L16.6109 4.14542L17.1296 4.33416L17.3981 3.5961C17.8049 3.75677 18.1993 3.94185 18.5798 4.14941L18.1883 4.82783L18.6663 5.10364L19.057 4.42642C19.4284 4.65471 19.7847 4.90525 20.1242 5.17605L19.6228 5.77369L20.0454 6.12845L20.5466 5.5312C20.8723 5.81962 21.1802 6.12757 21.4686 6.45323L20.8717 6.95422L21.2265 7.377L21.8239 6.87568C22.0946 7.21513 22.345 7.57132 22.5733 7.94267L21.896 8.33379L22.1719 8.81166L22.8503 8.41991C23.0579 8.80042 23.243 9.19481 23.4037 9.60148L22.6657 9.8702L22.8544 10.3887L23.5926 10.1199C23.7302 10.5296 23.8435 10.9503 23.9307 11.3804L23.1566 11.5168L23.2524 12.0603L24.026 11.9239C24.0896 12.3496 24.1281 12.7833 24.1394 13.2238H22.0359V13.7757H24.1395C24.1282 14.2162 24.0896 14.65 24.0261 15.0757Z" fill="#60501E"/>
<path d="M15.1317 15.2318C15.4827 15.1078 15.7655 14.6686 15.9036 14.1082L14.2212 14.6743C14.4353 15.1256 14.7739 15.3581 15.1317 15.2318Z" fill="#60501E"/>
<path d="M17.16 14.5229C17.5051 14.4009 17.7842 13.9746 17.9249 13.4281L16.2609 13.988C16.475 14.4247 16.8087 14.6472 17.16 14.5229Z" fill="#60501E"/>
<path d="M11.8688 15.2317C12.2262 15.3581 12.5651 15.1256 12.7789 14.6742L11.0964 14.108C11.2346 14.6684 11.5175 15.1078 11.8688 15.2317Z" fill="#60501E"/>
<path d="M9.83977 14.5229C10.1918 14.6472 10.5251 14.4246 10.7393 13.9879L9.07532 13.428C9.21566 13.9745 9.49474 14.4009 9.83977 14.5229Z" fill="#60501E"/>
<path d="M17.1814 15.4497C16.6393 15.6413 16.1381 15.0239 16.0397 14.0625L16.0281 14.0664C16.076 15.0427 15.6934 15.9675 15.1531 16.1586C14.606 16.3519 14.101 15.7219 14.0088 14.7458L13.5002 14.9169L12.9917 14.7458C12.8995 15.7219 12.3943 16.3518 11.8476 16.1586C11.3066 15.9674 10.9239 15.0424 10.972 14.0661L10.9603 14.0622C10.8619 15.0239 10.3607 15.6412 9.81856 15.4496C9.28327 15.2602 8.90292 14.3498 8.94271 13.3832L8.7865 13.3307V16.8583L13.5003 18.4448L18.214 16.8583V13.3307L18.0578 13.3832C18.0975 14.3498 17.7171 15.2602 17.1814 15.4497Z" fill="#60501E"/>
<path d="M8.7832 10.2684L8.78631 10.2694V12.173L13.5001 13.7595L18.2138 12.173V10.2694L18.2166 10.2684L13.5001 8.55481L8.7832 10.2684ZM13.5002 11.3969L10.0979 10.2526L13.5002 9.01658L16.9021 10.2526L13.5002 11.3969Z" fill="#60501E"/>
<path d="M16.0454 8.81459L13.5 4.19922L10.9546 8.8059L13.5 7.30672L16.0454 8.81459Z" fill="#60501E"/>
</svg>
