<svg width="163" height="160" viewBox="0 0 163 160" fill="none" xmlns="http://www.w3.org/2000/svg">
<rect width="163" height="160" rx="23" fill="#F5FAF4"/>
<mask id="mask0_386_95" style="mask-type:alpha" maskUnits="userSpaceOnUse" x="0" y="0" width="163" height="159">
<rect width="163" height="159" rx="23" fill="#E2F6F8"/>
</mask>
<g mask="url(#mask0_386_95)">
<path d="M117.371 109.462C171.244 49.1193 203.291 61.7729 222.609 81.1916L212.169 168.67L-52.4906 176.834L-61.9526 113.095C-17.9392 140.726 69.9095 162.623 117.371 109.462Z" fill="#2BFF00" fill-opacity="0.1"/>
</g>
<path d="M78.9332 80.3382C82.3652 76.4653 85.4879 73.3913 84.0221 71.834C82.5564 70.2767 58.8431 78.9474 60.181 81.2116C60.9785 82.5604 82.1659 97.704 84.2559 98.9214C86.7102 100.351 90.6537 98.6776 90.3059 96.0181L87.1062 71.6282C87.1062 71.6282 88.726 73.7705 89.2265 75.2506M95.2407 97.8949C94.8942 95.2367 92.0411 73.5037 92.0411 73.5037C92.0411 73.5037 93.6609 75.646 94.1614 77.1274" stroke="black" stroke-width="0.5" stroke-linecap="round" stroke-linejoin="round"/>
<path d="M86.0265 107.866C86.0265 99.4454 83.1527 80.7674 83.1527 80.7674C83.1527 80.7674 84.7725 82.9083 85.2744 84.3898M77.3461 81.6991C76.8456 80.2176 75.2272 78.0753 75.2272 78.0753C75.2272 78.0753 76.0426 87.8362 80.7836 89.7726C68.0704 83.7073 62.019 103.555 56.5259 97.7459C52.6057 93.6022 59.6471 87.7793 59.6471 87.7793" stroke="black" stroke-width="0.5" stroke-linecap="round" stroke-linejoin="round"/>
<path d="M99.1343 80.9989C98.6325 79.5188 97.0141 77.3765 97.0141 77.3765C97.0141 77.3765 99.7998 101.609 100.394 107.866C100.676 110.846 95.0671 112.212 92.9853 107.202C90.9036 102.192 92.8121 100.766 94.084 100.766C95.3558 100.766 97.439 104.942 94.084 106.878C90.729 108.815 85.1396 110.22 83.4442 112.156C81.7488 114.091 78.7788 118.534 76.8126 118.534C74.8463 118.534 70.9922 116.447 75.3867 107.866M103.992 104.182C103.644 99.7406 101.293 81.7437 101.293 81.7437C101.293 81.7437 102.913 83.8846 103.413 85.3661M66.2402 74.1116C68.6107 72.6586 73.4974 71.7486 76.0426 69.7837M59.3487 98.8238C56.1876 102.246 57.0744 109.193 60.7773 108.055C62.1592 107.63 63.8229 104.8 66.5977 103.576C71.2548 101.523 77.2113 100.475 76.8524 97.1974C76.3904 92.9643 72.2654 90.5011 72.2654 90.5011" stroke="black" stroke-width="0.5" stroke-linecap="round" stroke-linejoin="round"/>
<path d="M82.4996 101.297C80.5237 100.437 79.8775 99.4454 79.8775 99.4454C81.478 102.966 82.7114 105.111 82.7512 106.801C82.7911 108.491 73.9416 113.892 70.1425 113.892C65.7205 113.892 62.4837 110.761 63.7405 105.564M60.9355 81.9536C58.0287 83.2807 56.2261 89.56 58.4426 88.9262" stroke="black" stroke-width="0.5" stroke-linecap="round" stroke-linejoin="round"/>
<path d="M80 123.615C96.3269 123.615 109.562 110.579 109.562 94.5C109.562 78.4204 96.3269 65.3854 80 65.3854C63.6731 65.3854 50.4375 78.4204 50.4375 94.5C50.4375 110.579 63.6731 123.615 80 123.615Z" stroke="black" stroke-width="0.5" stroke-linecap="round" stroke-linejoin="round"/>
<path d="M116 67C116 67 115.789 69.6334 113 69.8592C115.789 70.1225 116 72.7183 116 72.7183C116 72.7183 116.211 70.0849 119 69.8592C116.211 69.6334 116 67 116 67Z" fill="#FFD08A"/>
<path d="M33 59C33 59 32.6479 64.2669 28 64.7183C32.6479 65.245 33 70.4366 33 70.4366C33 70.4366 33.3521 65.1698 38 64.7183C33.3521 64.2669 33 59 33 59Z" fill="#FFD08A"/>
</svg>
