<svg width="336" height="310" viewBox="0 0 336 310" fill="none" xmlns="http://www.w3.org/2000/svg">
<path d="M290.525 38.6469L87.6272 166.206L83.9063 172.746C104.512 165.162 105.194 174.733 117.797 173.705C106.706 183.907 99.0679 206.465 87.0101 211.926C77.1939 216.38 58.9457 225.091 52.5137 228.172L38.3915 253.169L44.1542 260.302L302.517 114.931L294.491 41.8534L290.525 38.6469Z" fill="#001C18"/>
<path d="M271.32 212.15C260.725 206.164 258.588 182.353 250.085 171.421C263.051 172.869 271.139 163.487 293.407 175.222L291.499 162.003L76.3421 56.8772L17.4123 118.625L14.733 124.138L300.355 260.469L304.962 255.27L301.287 229.837C295.525 226.345 279.859 216.969 271.32 212.15Z" fill="#001C18"/>
<path d="M293.416 175.22L289.444 179.771C284.702 176.6 279.257 174.638 273.583 174.056C264.594 173.303 261.714 177.876 249.199 175.625C248.003 174.891 247.123 173.74 246.727 172.394C246.332 171.048 246.45 169.604 247.058 168.34L273.497 164.107L293.416 175.22Z" fill="#001C18"/>
<path d="M271.32 212.15C260.725 206.164 258.588 182.353 250.085 171.421C263.051 172.869 271.139 163.487 293.407 175.222L291.499 162.003L64.4665 53.8129L17.4123 118.625L304.983 255.239L301.308 229.805C295.525 226.345 279.859 216.969 271.32 212.15Z" fill="#004B40"/>
<path d="M179.344 108.549L100.538 158.097L168.457 190.368L252.184 143.252L179.344 108.549Z" fill="#001C18"/>
<path d="M83.9063 172.746L87.6827 178.191C87.6827 178.191 93.3247 173.47 100.324 175.734C107.324 177.997 113.623 182.064 123.044 177.533C123.592 173.85 122.861 170.091 120.973 166.882C120.973 166.882 97.1695 164.351 96.6718 164.448C96.1742 164.544 83.9063 172.746 83.9063 172.746Z" fill="#001C18"/>
<path d="M87.6272 166.206L83.9063 172.746C104.512 165.162 105.194 174.733 117.797 173.705C106.706 183.907 99.0679 206.465 87.0101 211.926C77.1939 216.38 58.9457 225.091 52.5137 228.172L38.3915 253.169L296.979 111.097L290.525 38.6469L87.6272 166.206Z" fill="#004B40"/>
<path d="M179.034 104.342L84.6134 157.46L153.283 190.237L159.398 186.693L179.034 104.342Z" fill="#001C18"/>
<path d="M179.034 104.342L91.2214 153.747L159.398 186.693L179.034 104.342Z" fill="#001C18"/>
<path d="M22.7517 115.658C22.7517 115.658 141.073 175.106 145.419 177.143C149.765 179.179 158.538 182.502 170.028 176.309C181.517 170.117 292.488 109.016 292.488 109.016L287.101 35.7155L285.961 33.9529L175.688 93.0057L73.9299 44.9336L22.341 113.545L22.7517 115.658Z" fill="#001C18"/>
<path d="M22.3411 113.545C22.3411 113.545 140.662 172.994 145.01 175.039C149.358 177.084 158.128 180.389 169.619 174.205C181.11 168.021 290.536 107.829 290.536 107.829L285.969 33.9966L175.269 90.8494L73.5125 42.786L22.3411 113.545Z" fill="#87D1A4"/>
<path d="M78.2676 40.4482L25.4297 112.328L143.751 171.777C143.751 171.777 148.864 168.065 152.845 167.291C156.826 166.517 167.005 172.693 167.005 172.693L285.159 107.062L281.351 33.9157L269.582 31.2113L177.262 86.1402L82.0653 39.71L78.2676 40.4482Z" fill="#EFE8C5"/>
<path d="M271.805 31.6489C271.964 37.6883 272.041 43.7256 272.11 49.7645L272.195 67.8683L272.097 86.0079L271.987 95.0895L271.779 104.136L271.593 95.1118L271.484 86.0726L271.39 67.9704L271.489 49.8309C271.551 43.7212 271.629 37.69 271.805 31.6489Z" fill="#FFD1A3"/>
<path d="M273.526 32.3472C273.773 38.279 274.017 44.1932 274.138 50.1313L274.525 67.9228L274.731 85.7134L274.766 94.6126L274.685 103.517L274.342 94.6226L274.082 85.7308L273.705 67.9009L273.509 50.1087C273.476 44.2078 273.456 38.2772 273.526 32.3472Z" fill="#FFD1A3"/>
<path d="M275.709 32.8561C276.019 38.7847 276.203 44.7196 276.448 50.6426L277.004 68.4194L277.304 86.2279L277.402 95.124L277.421 104.027L277.006 95.1376L276.673 86.2419L276.151 68.4584L275.827 50.6637C275.743 44.7276 275.684 38.7864 275.709 32.8561Z" fill="#FFD1A3"/>
<path d="M277.829 33.3228C278.183 39.2429 278.456 45.1696 278.71 51.0909L279.374 68.8648L279.84 86.641L280.01 95.5323L280.098 104.421L279.612 95.5371L279.217 86.6534L278.553 68.8795L278.078 51.1049C277.926 45.1911 277.85 39.2534 277.829 33.3228Z" fill="#FFD1A3"/>
<path d="M279.926 33.8574C280.337 39.8389 280.659 45.8286 280.955 51.778L281.773 69.7394L282.408 87.7363L282.665 96.7467L282.834 105.774L282.272 96.823L281.797 87.8551L281.022 69.8853L280.387 51.8883C280.157 45.8084 279.995 39.851 279.926 33.8574Z" fill="#FFD1A3"/>
<path d="M35.2769 107.289C35.2769 107.289 61.7708 119.416 83.554 126.607C105.337 133.798 147.545 153.916 152.845 167.246C162.364 152.965 174.398 134.562 202.135 126.054C229.873 117.545 264.223 107.118 268.487 103.371C268.558 90.8726 269.64 31.1367 269.64 31.1367C260.383 34.835 250.921 37.9962 241.3 40.6046C226.46 44.5221 181.637 63.4365 177.306 86.1318C167.212 70.6075 155.242 62.5333 134.075 57.4878C112.908 52.4424 82.0653 39.71 82.0653 39.71L35.2769 107.289Z" fill="#FBF9EF"/>
<path d="M152.866 167.26C162.364 152.965 174.398 134.562 202.135 126.054C229.873 117.545 264.223 107.118 268.487 103.371C268.558 90.8726 269.64 31.1367 269.64 31.1367C260.383 34.835 250.921 37.9962 241.3 40.6046C226.46 44.5221 181.637 63.4365 177.306 86.1318L152.866 167.26Z" fill="#FBF9EF"/>
<path d="M222.625 122.488C171.23 143.577 152.866 167.26 152.866 167.26C156.874 166.481 167.026 172.662 167.026 172.662L285.18 107.03C285.18 107.03 273.821 104.527 268.45 103.415C262.977 108.121 251.767 110.345 222.625 122.488Z" fill="#FBF9EF"/>
<path d="M113.059 134.834C93.7478 126.519 35.277 107.289 35.277 107.289L25.3843 112.328L143.706 171.777C143.706 171.777 148.819 168.065 152.8 167.291C152.458 154.438 132.361 143.15 113.059 134.834Z" fill="#FBF9EF"/>
<path d="M113.059 134.834C93.7478 126.519 35.277 107.288 35.277 107.288C35.277 107.288 112.108 139.594 121.866 143.74C131.623 147.887 150.745 159.563 152.866 167.26C152.458 154.438 132.361 143.15 113.059 134.834Z" fill="#FCCE98"/>
<path d="M34.7804 110.094C34.7804 110.094 134.464 155.045 152.866 167.26C138.717 154.409 66.2671 121.107 34.7804 110.094Z" fill="#FCCE98"/>
<path d="M31.9082 110.652L46.4844 117.495L61.0305 124.417L90.0645 138.379L119.005 152.514L133.456 159.644L147.857 166.847L133.281 160.004L118.735 153.083L89.7012 139.12L60.7589 124.977L46.3098 117.855L31.9082 110.652Z" fill="#FCCE98"/>
<path d="M156.874 166.481C161.036 163.053 165.308 159.768 169.591 156.489C173.873 153.21 178.256 150.075 182.672 146.97C184.878 145.409 187.1 143.881 189.358 142.4C191.616 140.919 193.877 139.455 196.239 138.09C200.967 135.423 205.849 133.087 210.756 130.829C215.662 128.571 220.657 126.531 225.64 124.484C230.624 122.437 235.608 120.39 240.637 118.434C245.666 116.478 250.628 114.508 255.668 112.468C260.698 110.553 265.62 108.365 270.412 105.914C268.123 107.349 265.748 108.643 263.301 109.788C260.877 110.975 258.421 112.087 255.974 113.206C251.035 115.389 246.079 117.485 241.117 119.6C231.198 123.802 221.213 127.854 211.435 132.319C206.534 134.513 201.659 136.792 196.989 139.385C194.669 140.688 192.387 142.092 190.131 143.581L183.374 147.975C178.888 150.949 174.453 154.004 170.055 157.106C165.657 160.207 161.256 163.346 156.874 166.481Z" fill="#FCCE98"/>
<path d="M161.199 166.782C169.838 160.633 178.728 154.864 187.87 149.475C192.425 146.777 197.055 144.183 201.759 141.692C204.088 140.433 206.47 139.264 208.836 138.061C211.203 136.858 213.614 135.746 216.017 134.635C225.625 130.186 235.182 125.61 244.715 121.003C249.487 118.704 254.243 116.372 258.984 114.007C261.356 112.83 263.727 111.653 266.073 110.436C268.418 109.219 270.783 108.008 273.055 106.642C263.981 112.12 254.451 116.791 244.996 121.564C235.541 126.337 225.964 130.854 216.36 135.375C206.718 139.75 197.341 144.735 188.2 150.009C183.614 152.64 179.072 155.362 174.575 158.175C170.053 160.966 165.588 163.818 161.199 166.782Z" fill="#FCCE98"/>
<path d="M149.374 150.643L148.28 149.352C144.641 145.175 129.66 136.2 115.05 130.442C101.086 124.93 59.7597 108.138 59.3385 107.975L58.3467 107.534L95.7337 49.9459L96.5725 50.2993C96.9224 50.4215 131.516 62.2706 145.229 67.8409C158.942 73.4111 170.842 83.9182 170.963 84.0305L171.797 84.9647L171.71 85.2171C171.591 85.5845 159.488 121.759 149.614 150.016L149.374 150.643ZM60.1022 107.383C64.6797 109.211 102.182 124.463 115.344 129.669C128.505 134.876 143.646 143.412 148.43 148.308C157.81 121.424 169.106 87.7165 170.206 84.4224C168.595 83.0322 157.567 73.7054 144.916 68.563C131.912 63.2809 100.081 52.3171 96.601 51.1454L60.1022 107.383Z" fill="#004B40"/>
<path d="M162.845 147.653L161.331 149.931L180.951 82.6961L180.994 82.6877C181.077 82.5538 189.565 69.3069 201.065 62.3782C218.52 52.3805 249.792 42.9948 250.105 42.8796L252.168 42.2611L252.106 42.8712L245.446 102.858L245.419 103.135L243.707 103.649C174.237 122.036 162.987 147.408 162.845 147.653ZM181.746 83.058L163.817 144.637C168.774 137.513 187.04 117.889 243.266 102.919C245.042 86.936 249.232 49.1105 249.819 43.8321C245.415 45.1775 217.586 53.8668 201.548 63.0454C190.526 69.6365 182.302 82.1436 181.746 83.058Z" fill="#004B40"/>
</svg>
