<svg width="393" height="396" viewBox="0 0 393 396" fill="none" xmlns="http://www.w3.org/2000/svg">
<g clip-path="url(#clip0_371_1058)">
<path d="M319.44 108.765L116.543 236.324L112.822 242.864C133.427 235.28 134.11 244.851 146.712 243.823C135.621 254.025 127.984 276.584 115.926 282.044C106.11 286.498 87.8613 295.209 81.4293 298.29L67.3071 323.287L73.0698 330.421L331.433 185.05L323.407 111.972L319.44 108.765Z" fill="#001C18"/>
<path d="M300.236 282.268C289.641 276.282 287.504 252.471 279.001 241.539C291.966 242.987 300.055 233.605 322.323 245.34L320.414 232.121L105.258 126.995L46.3279 188.744L43.6486 194.256L329.271 330.587L333.878 325.388L330.202 299.955C324.441 296.463 308.774 287.087 300.236 282.268Z" fill="#001C18"/>
<path d="M322.331 245.339L318.359 249.889C313.618 246.718 308.173 244.756 302.499 244.174C293.509 243.421 290.629 247.995 278.114 245.743C276.919 245.009 276.038 243.858 275.643 242.512C275.247 241.167 275.365 239.722 275.974 238.458L302.413 234.225L322.331 245.339Z" fill="#001C18"/>
<path d="M300.236 282.268C289.641 276.282 287.504 252.471 279 241.539C291.966 242.987 300.054 233.605 322.322 245.34L320.414 232.121L93.382 123.931L46.3278 188.744L333.899 325.357L330.223 299.924C324.441 296.463 308.774 287.087 300.236 282.268Z" fill="#60501E"/>
<path d="M208.259 178.667L129.454 228.215L197.372 260.486L281.099 213.371L208.259 178.667Z" fill="#001C18"/>
<path d="M112.822 242.864L116.598 248.309C116.598 248.309 122.24 243.588 129.24 245.852C136.239 248.115 142.539 252.182 151.959 247.651C152.508 243.968 151.777 240.209 149.889 237C149.889 237 126.085 234.469 125.587 234.566C125.09 234.663 112.822 242.864 112.822 242.864Z" fill="#001C18"/>
<path d="M116.543 236.324L112.822 242.864C133.427 235.28 134.11 244.851 146.712 243.823C135.621 254.025 127.984 276.584 115.926 282.044C106.11 286.498 87.8613 295.209 81.4293 298.29L67.3071 323.287L325.894 181.215L319.44 108.765L116.543 236.324Z" fill="#60501E"/>
<path d="M207.949 174.46L113.529 227.578L182.198 260.355L188.314 256.811L207.949 174.46Z" fill="#001C18"/>
<path d="M207.949 174.46L120.137 223.865L188.313 256.811L207.949 174.46Z" fill="#001C18"/>
<path d="M51.6672 185.776C51.6672 185.776 169.988 245.224 174.335 247.261C178.681 249.297 187.454 252.62 198.943 246.427C210.433 240.235 321.404 179.135 321.404 179.135L316.016 105.834L314.876 104.071L204.604 163.124L102.845 115.052L51.2566 183.663L51.6672 185.776Z" fill="#001C18"/>
<path d="M51.2565 183.663C51.2565 183.663 169.578 243.112 173.926 245.157C178.273 247.202 187.043 250.508 198.534 244.324C210.026 238.14 319.451 177.947 319.451 177.947L314.885 104.115L204.185 160.968L102.428 112.904L51.2565 183.663Z" fill="#FFFAF0"/>
<path d="M107.183 110.566L54.3453 182.446L172.667 241.895C172.667 241.895 177.78 238.183 181.761 237.409C185.742 236.635 195.921 242.811 195.921 242.811L314.075 177.18L310.267 104.034L298.497 101.329L206.178 156.258L110.981 109.828L107.183 110.566Z" fill="#EFE8C5"/>
<path d="M300.721 101.767C300.88 107.807 300.957 113.844 301.025 119.883L301.111 137.987L301.013 156.126L300.902 165.208L300.695 174.254L300.508 165.23L300.4 156.191L300.306 138.089L300.404 119.949C300.467 113.839 300.545 107.808 300.721 101.767Z" fill="#FFD1A3"/>
<path d="M302.442 102.465C302.689 108.397 302.932 114.311 303.054 120.25L303.441 138.041L303.646 155.832L303.682 164.731L303.6 173.635L303.258 164.741L302.997 155.849L302.621 138.019L302.424 120.227C302.392 114.326 302.371 108.396 302.442 102.465Z" fill="#FFD1A3"/>
<path d="M304.625 102.974C304.934 108.903 305.119 114.838 305.364 120.761L305.92 138.538L306.22 156.346L306.318 165.242L306.336 174.145L305.922 165.256L305.588 156.36L305.067 138.577L304.743 120.782C304.658 114.846 304.599 108.905 304.625 102.974Z" fill="#FFD1A3"/>
<path d="M306.745 103.441C307.098 109.361 307.372 115.288 307.626 121.209L308.29 138.983L308.755 156.759L308.925 165.651L309.013 174.54L308.528 165.655L308.133 156.772L307.468 138.998L306.994 121.223C306.841 115.309 306.765 109.372 306.745 103.441Z" fill="#FFD1A3"/>
<path d="M308.842 103.976C309.253 109.957 309.574 115.947 309.87 121.896L310.688 139.857L311.324 157.854L311.58 166.865L311.749 175.892L311.187 166.941L310.713 157.973L309.938 140.003L309.302 122.006C309.072 115.927 308.911 109.969 308.842 103.976Z" fill="#FFD1A3"/>
<path d="M64.1925 177.407C64.1925 177.407 90.6863 189.535 112.47 196.725C134.253 203.916 176.461 224.034 181.761 237.364C191.28 223.083 203.313 204.68 231.051 196.172C258.788 187.664 293.138 177.236 297.402 173.49C297.473 160.991 298.555 101.255 298.555 101.255C289.299 104.953 279.837 108.114 270.216 110.723C255.376 114.64 210.553 133.555 206.221 156.25C196.128 140.726 184.157 132.651 162.99 127.606C141.823 122.561 110.981 109.828 110.981 109.828L64.1925 177.407Z" fill="#FBF9EF"/>
<path d="M181.782 237.378C191.28 223.083 203.314 204.68 231.051 196.172C258.788 187.664 293.138 177.236 297.402 173.489C297.473 160.991 298.555 101.255 298.555 101.255C289.299 104.953 279.837 108.114 270.216 110.723C255.376 114.64 210.553 133.555 206.221 156.25L181.782 237.378Z" fill="#FBF9EF"/>
<path d="M251.541 192.606C200.146 213.695 181.782 237.378 181.782 237.378C185.789 236.599 195.942 242.78 195.942 242.78L314.096 177.149C314.096 177.149 302.737 174.645 297.365 173.533C291.893 178.239 280.683 180.463 251.541 192.606Z" fill="#FBF9EF"/>
<path d="M141.974 204.952C122.663 196.637 64.1922 177.407 64.1922 177.407L54.2996 182.446L172.621 241.895C172.621 241.895 177.734 238.183 181.715 237.409C181.373 224.556 161.276 213.268 141.974 204.952Z" fill="#FBF9EF"/>
<path d="M141.974 204.952C122.663 196.637 64.1924 177.406 64.1924 177.406C64.1924 177.406 141.024 209.712 150.781 213.858C160.539 218.005 179.661 229.681 181.782 237.378C181.373 224.556 161.276 213.268 141.974 204.952Z" fill="#FCCE98"/>
<path d="M63.6958 180.212C63.6958 180.212 163.38 225.163 181.782 237.378C167.632 224.527 95.1825 191.225 63.6958 180.212Z" fill="#FCCE98"/>
<path d="M60.8237 180.771L75.3999 187.614L89.946 194.535L118.98 208.497L147.921 222.632L162.371 229.762L176.773 236.966L162.197 230.123L147.651 223.201L118.617 209.239L89.6744 195.095L75.2253 187.974L60.8237 180.771Z" fill="#FCCE98"/>
<path d="M185.789 236.599C189.952 233.172 194.224 229.886 198.506 226.607C202.789 223.329 207.172 220.193 211.587 217.088C213.794 215.527 216.015 213.999 218.273 212.518C220.531 211.037 222.793 209.574 225.155 208.208C229.882 205.541 234.765 203.206 239.671 200.947C244.578 198.689 249.572 196.649 254.556 194.602C259.54 192.555 264.524 190.508 269.553 188.552C274.581 186.596 279.544 184.626 284.584 182.586C289.614 180.671 294.536 178.483 299.328 176.033C297.039 177.467 294.664 178.761 292.217 179.906C289.793 181.093 287.336 182.205 284.89 183.324C279.951 185.507 274.995 187.603 270.033 189.718C260.113 193.92 250.128 197.972 240.351 202.437C235.45 204.631 230.574 206.91 225.905 209.503C223.585 210.806 221.303 212.21 219.047 213.699L212.29 218.093C207.803 221.067 203.369 224.122 198.971 227.224C194.572 230.326 190.172 233.464 185.789 236.599Z" fill="#FCCE98"/>
<path d="M190.115 236.9C198.753 230.751 207.643 224.982 216.785 219.593C221.341 216.896 225.971 214.301 230.675 211.81C233.003 210.551 235.385 209.382 237.752 208.179C240.118 206.976 242.529 205.864 244.932 204.754C254.541 200.304 264.098 195.728 273.63 191.121C278.402 188.822 283.159 186.49 287.899 184.125C290.271 182.948 292.643 181.772 294.988 180.555C297.334 179.338 299.699 178.126 301.97 176.76C292.896 182.239 283.367 186.909 273.912 191.682C264.457 196.456 254.879 200.972 245.275 205.493C235.634 209.868 226.256 214.853 217.116 220.127C212.529 222.758 207.988 225.48 203.491 228.293C198.969 231.084 194.504 233.936 190.115 236.9Z" fill="#FCCE98"/>
<path d="M178.289 220.761L177.195 219.47C173.557 215.293 158.575 206.319 143.965 200.56C130.001 195.048 88.6752 178.256 88.2539 178.093L87.2621 177.652L124.649 120.064L125.488 120.417C125.838 120.54 160.432 132.389 174.144 137.959C187.857 143.529 199.757 154.036 199.878 154.149L200.712 155.083L200.626 155.335C200.507 155.703 188.403 191.877 178.53 220.134L178.289 220.761ZM89.0176 177.501C93.5951 179.329 131.097 194.581 144.259 199.787C157.421 204.994 172.562 213.53 177.346 218.426C186.725 191.542 198.022 157.835 199.121 154.54C197.51 153.15 186.483 143.824 173.832 138.681C160.827 133.399 128.997 122.435 125.516 121.263L89.0176 177.501Z" fill="#60501E"/>
<path d="M191.76 217.771L190.246 220.05L209.866 152.814L209.91 152.806C209.992 152.672 218.48 139.425 229.981 132.496C247.435 122.499 278.708 113.113 279.021 112.998L281.084 112.379L281.021 112.989L274.362 172.976L274.334 173.253L272.622 173.767C203.152 192.154 191.903 217.526 191.76 217.771ZM210.661 153.176L192.732 214.755C197.69 207.631 215.955 188.007 272.181 173.037C273.958 157.054 278.148 119.229 278.735 113.95C274.33 115.296 246.501 123.985 230.464 133.163C219.441 139.755 211.217 152.262 210.661 153.176Z" fill="#60501E"/>
</g>
<path d="M313.5 57.1785C313.5 57.1785 312.901 65.5177 305 66.2325C312.901 67.0664 313.5 75.2864 313.5 75.2864C313.5 75.2864 314.099 66.9473 322 66.2325C314.099 65.5177 313.5 57.1785 313.5 57.1785Z" fill="#FFD08A"/>
<path d="M127.5 76.2395C127.5 76.2395 127.254 79.7507 124 80.0517C127.254 80.4028 127.5 83.8639 127.5 83.8639C127.5 83.8639 127.746 80.3527 131 80.0517C127.746 79.7507 127.5 76.2395 127.5 76.2395Z" fill="#FFD08A"/>
<path d="M317.5 198.23C317.5 198.23 317.254 201.741 314 202.042C317.254 202.393 317.5 205.854 317.5 205.854C317.5 205.854 317.746 202.343 321 202.042C317.746 201.741 317.5 198.23 317.5 198.23Z" fill="#FFD08A"/>
<path d="M92 26.6807C92 26.6807 90.9437 40.7256 77 41.9295C90.9437 43.334 92 57.1783 92 57.1783C92 57.1783 93.0563 43.1334 107 41.9295C93.0563 40.7256 92 26.6807 92 26.6807Z" fill="#FFD08A"/>
<defs>
<clipPath id="clip0_371_1058">
<rect width="346.197" height="346.197" fill="white" transform="translate(-1 52.959) rotate(-8.79929)"/>
</clipPath>
</defs>
</svg>
