<svg width="24" height="24" viewBox="0 0 24 24" fill="none" xmlns="http://www.w3.org/2000/svg">
<g clip-path="url(#clip0_147_5752)">
<path d="M10.3599 8.72885L9.86286 11.3519L17.9779 6.72185C18.3642 6.50116 18.8219 6.44143 19.252 6.55558C19.682 6.66974 20.0498 6.9486 20.2759 7.33185C20.3861 7.52086 20.4576 7.7299 20.4863 7.9468C20.5149 8.16371 20.5002 8.38415 20.4428 8.5953C20.3855 8.80645 20.2868 9.00409 20.1524 9.17672C20.0179 9.34935 19.8505 9.49353 19.6599 9.60085L15.2899 12.0929L16.3289 14.7759C17.0149 16.4999 17.3579 17.3609 17.3459 18.1129C17.3259 19.3549 16.8759 20.5029 15.6489 21.2029C14.7949 21.6899 14.0989 21.8079 12.2639 22.1789C11.0989 22.4149 10.5159 22.5329 9.97586 22.4909C9.08862 22.4227 8.25198 22.0508 7.60686 21.4379C7.21686 21.0669 6.91986 20.5579 6.32586 19.5399L5.82086 18.6779C5.03086 17.3249 4.63586 16.6479 4.53486 15.9029C4.51686 15.7695 4.5062 15.6352 4.50286 15.4999C4.48286 14.7479 4.76486 14.0179 5.32886 12.5589L7.15486 7.83485C7.29363 7.48041 7.54904 7.18384 7.87899 6.99406C8.20894 6.80427 8.59371 6.73259 8.96986 6.79085C9.19028 6.82257 9.40202 6.89847 9.5924 7.01401C9.78277 7.12954 9.94785 7.28233 10.0777 7.46321C10.2076 7.64409 10.2997 7.84934 10.3483 8.06665C10.397 8.28396 10.4012 8.50885 10.3609 8.72785M15.1369 4.46585C14.7399 4.86185 13.0129 4.74785 12.3769 4.66785M15.1369 4.46585C15.5339 4.06985 15.5449 2.13785 15.4649 1.50385M15.1369 4.46585C14.1159 2.69785 10.0559 -0.12315 6.02686 2.69785C4.08086 4.06085 3.80686 4.91985 3.49786 5.49485" stroke="#FB3748" stroke-width="1.5" stroke-linecap="round" stroke-linejoin="round"/>
</g>
<defs>
<clipPath id="clip0_147_5752">
<rect width="24" height="24" fill="white" transform="matrix(-1 0 0 1 24 0.000732422)"/>
</clipPath>
</defs>
</svg>
