<svg width="21" height="21" viewBox="0 0 21 21" fill="none" xmlns="http://www.w3.org/2000/svg">
<path d="M13.0961 3.90399C12.4946 3.29131 11.7776 2.80387 10.9866 2.46983C10.1956 2.13579 9.34633 1.96177 8.48772 1.95783C7.62911 1.95388 6.77823 2.12008 5.98421 2.44684C5.1902 2.7736 4.46879 3.25443 3.86166 3.86156C3.25452 4.4687 2.77369 5.1901 2.44694 5.98412C2.12018 6.77813 1.95398 7.62901 1.95792 8.48762C1.96187 9.34623 2.13588 10.1956 2.46992 10.9865C2.80396 11.7775 3.2914 12.4945 3.90409 13.096C5.12684 14.2965 6.77418 14.9656 8.48772 14.9577C10.2013 14.9498 11.8424 14.2656 13.054 13.054C14.2657 11.8423 14.9499 10.2012 14.9578 8.48762C14.9657 6.77408 14.2966 5.12675 13.0961 3.90399ZM2.49009 2.48999C4.02291 0.957555 6.08324 0.0685687 8.24977 0.00482472C10.4163 -0.0589192 12.5253 0.707396 14.1456 2.14706C15.7659 3.58673 16.7749 5.59099 16.9665 7.74997C17.158 9.90895 16.5176 12.0596 15.1761 13.762L20.5211 19.107L19.1071 20.521L13.7621 15.176C12.0591 16.5125 9.91034 17.149 7.75415 16.9556C5.59796 16.7622 3.5968 15.7534 2.15887 14.1351C0.720938 12.5168 -0.0454147 10.4109 0.0161353 8.24689C0.0776853 6.08292 0.962501 4.02395 2.49009 2.48999Z" fill="#1C7C8B"/>
</svg>
