<svg width="20" height="20" viewBox="0 0 20 20" fill="none" xmlns="http://www.w3.org/2000/svg">
<path d="M12.5 19V14C12.5 13.7348 12.3946 13.4804 12.2071 13.2929C12.0196 13.1054 11.7652 13 11.5 13H8.5C8.23478 13 7.98043 13.1054 7.79289 13.2929C7.60536 13.4804 7.5 13.7348 7.5 14V19" stroke="#1C7C8B" stroke-linecap="round" stroke-linejoin="round"/>
<path d="M3.00004 9V15C3.00004 16.886 3.00004 17.828 3.58604 18.414C4.17204 19 5.11404 19 7.00004 19H13C14.886 19 15.828 19 16.414 18.414C17 17.828 17 16.886 17 15V9M2.62104 2.515C2.80304 1.787 2.89404 1.424 3.16504 1.212C3.43704 1 3.81204 1 4.56204 1H15.438C16.188 1 16.563 1 16.835 1.212C17.105 1.424 17.197 1.787 17.379 2.515L18.582 7.329C18.679 7.717 18.728 7.91 18.717 8.068C18.7034 8.26726 18.6303 8.45785 18.5073 8.61523C18.3844 8.77261 18.2171 8.88955 18.027 8.951C17.877 9 17.673 9 17.264 9C16.731 9 16.464 9 16.241 8.948C15.9319 8.87598 15.6443 8.7314 15.402 8.52621C15.1598 8.32102 14.9699 8.06112 14.848 7.768C14.759 7.556 14.716 7.298 14.631 6.785C14.607 6.641 14.595 6.569 14.581 6.55C14.5718 6.53719 14.5596 6.52677 14.5455 6.51958C14.5314 6.51239 14.5158 6.50864 14.5 6.50864C14.4842 6.50864 14.4686 6.51239 14.4546 6.51958C14.4405 6.52677 14.4283 6.53719 14.419 6.55C14.405 6.569 14.393 6.64 14.369 6.785L14.288 7.274L14.27 7.374C14.1846 7.82355 13.9476 8.23021 13.5985 8.52611C13.2495 8.82202 12.8095 8.98929 12.352 9H12.148C11.6729 8.98926 11.2171 8.80965 10.8623 8.49337C10.5076 8.17709 10.277 7.74481 10.212 7.274L10.131 6.784C10.107 6.641 10.095 6.569 10.081 6.55C10.0718 6.53719 10.0596 6.52677 10.0455 6.51958C10.0314 6.51239 10.0158 6.50864 10 6.50864C9.98423 6.50864 9.96864 6.51239 9.95456 6.51958C9.94048 6.52677 9.92831 6.53719 9.91904 6.55C9.90504 6.569 9.89304 6.64 9.86904 6.785L9.78804 7.274L9.77004 7.374C9.68459 7.82355 9.44757 8.23021 9.09852 8.52611C8.74948 8.82202 8.30951 8.98929 7.85204 9H7.64804C7.19056 8.98929 6.7506 8.82202 6.40155 8.52611C6.0525 8.23021 5.81548 7.82355 5.73004 7.374L5.71204 7.274L5.63104 6.784C5.60704 6.641 5.59504 6.569 5.58104 6.55C5.57177 6.53719 5.55959 6.52677 5.54551 6.51958C5.53143 6.51239 5.51585 6.50864 5.50004 6.50864C5.48423 6.50864 5.46864 6.51239 5.45456 6.51958C5.44048 6.52677 5.42831 6.53719 5.41904 6.55C5.40504 6.569 5.39304 6.64 5.36904 6.785C5.28404 7.299 5.24104 7.555 5.15204 7.768C5.03026 8.06101 4.84051 8.32083 4.59846 8.52601C4.35642 8.73119 4.06903 8.87584 3.76004 8.948C3.53604 9 3.27004 9 2.73604 9C2.32704 9 2.12304 9 1.97304 8.951C1.783 8.88955 1.61571 8.77261 1.49273 8.61523C1.36975 8.45785 1.29672 8.26726 1.28304 8.068C1.27304 7.91 1.32104 7.717 1.41804 7.329L2.62104 2.515Z" stroke="#1C7C8B"/>
</svg>
