<svg width="163" height="160" viewBox="0 0 163 160" fill="none" xmlns="http://www.w3.org/2000/svg">
<rect width="163" height="160" rx="23" fill="#F4F8FA"/>
<mask id="mask0_386_94" style="mask-type:alpha" maskUnits="userSpaceOnUse" x="0" y="0" width="163" height="159">
<rect width="163" height="159" rx="23" fill="#6EC2FF"/>
</mask>
<g mask="url(#mask0_386_94)">
<path d="M117.371 109.462C171.244 49.1193 203.291 61.7729 222.609 81.1916L212.169 168.67L-52.4906 176.834L-61.9526 113.095C-17.9392 140.726 69.9095 162.623 117.371 109.462Z" fill="#126CEB" fill-opacity="0.1"/>
</g>
<path d="M109.551 54.3203L113.345 52.2858C113.391 52.2623 113.443 52.2506 113.496 52.2518C113.548 52.253 113.599 52.2671 113.644 52.2927L117.412 54.3268C117.47 54.3568 117.536 54.3683 117.6 54.3598C117.665 54.3512 117.725 54.3231 117.772 54.2794C117.818 54.2357 117.849 54.1789 117.859 54.1174C117.869 54.0559 117.858 53.993 117.827 53.9379L115.692 50.3214C115.668 50.2774 115.655 50.228 115.657 50.1781C115.658 50.1282 115.673 50.0794 115.7 50.0366L117.83 46.4297C117.864 46.3737 117.878 46.3083 117.869 46.244C117.859 46.1797 117.828 46.1202 117.779 46.0751C117.73 46.03 117.666 46.0019 117.599 45.9953C117.531 45.9887 117.463 46.0039 117.405 46.0386L113.631 48.0844C113.585 48.1079 113.533 48.1197 113.481 48.1185C113.429 48.1172 113.377 48.1031 113.332 48.0775L109.548 46.0476C109.491 46.0176 109.425 46.0061 109.36 46.0146C109.295 46.0232 109.235 46.0514 109.189 46.095C109.142 46.1387 109.112 46.1955 109.102 46.257C109.092 46.3185 109.103 46.3814 109.133 46.4365L111.284 50.0488C111.309 50.0929 111.321 50.1423 111.32 50.1922C111.319 50.2421 111.304 50.2908 111.277 50.3337L109.143 53.9251C109.111 53.9796 109.099 54.0424 109.108 54.104C109.117 54.1657 109.147 54.223 109.192 54.2673C109.238 54.3117 109.298 54.3408 109.362 54.3503C109.427 54.3599 109.493 54.3493 109.551 54.3203Z" fill="url(#paint0_linear_386_94)" stroke="#FCD34D" stroke-width="0.0625" stroke-linecap="round" stroke-linejoin="round"/>
<path d="M75.9008 69.9512L80.3447 72.4667C80.3958 72.4964 80.4383 72.5377 80.4685 72.587C80.4987 72.6363 80.5155 72.692 80.5175 72.749L80.5604 77.6644C80.5572 77.7415 80.5811 77.8174 80.6285 77.8799C80.6759 77.9424 80.744 77.9879 80.8218 78.0091C80.8996 78.0304 80.9827 78.026 81.0576 77.9969C81.1325 77.9677 81.195 77.9154 81.2349 77.8483L83.8743 73.613C83.9055 73.5643 83.9489 73.5238 84.0006 73.495C84.0523 73.4663 84.1107 73.4502 84.1705 73.4484L89.3281 73.4074C89.409 73.4105 89.4886 73.3877 89.5542 73.3425C89.6198 73.2973 89.6676 73.2324 89.6898 73.1583C89.7121 73.0841 89.7075 73.005 89.6769 72.9336C89.6463 72.8622 89.5914 72.8027 89.5211 72.7646L85.0771 70.2491C85.026 70.2194 84.9835 70.178 84.9533 70.1288C84.9232 70.0795 84.9063 70.0238 84.9044 69.9668L84.8614 65.0513C84.8647 64.9743 84.8407 64.8984 84.7933 64.8359C84.7459 64.7734 84.6778 64.7278 84.6 64.7066C84.5222 64.6854 84.4392 64.6897 84.3642 64.7189C84.2893 64.7481 84.2269 64.8004 84.1869 64.8675L81.5475 69.1027C81.5163 69.1515 81.4729 69.192 81.4212 69.2208C81.3695 69.2495 81.3111 69.2655 81.2513 69.2674L76.0646 69.3158C75.9886 69.3211 75.9163 69.3492 75.8581 69.3961C75.7999 69.443 75.7587 69.5062 75.7405 69.5768C75.7223 69.6473 75.728 69.7215 75.7568 69.7888C75.7856 69.8561 75.836 69.9129 75.9008 69.9512Z" fill="url(#paint1_linear_386_94)" stroke="#FCD34D" stroke-width="0.0625" stroke-linecap="round" stroke-linejoin="round"/>
<path d="M101.535 94.1002L107.526 94.1762C107.598 94.1741 107.67 94.1898 107.733 94.2217C107.797 94.2537 107.851 94.3008 107.89 94.3585L110.933 99.2713C110.981 99.3399 111.051 99.3922 111.133 99.421C111.214 99.4499 111.303 99.4539 111.387 99.4325C111.471 99.4111 111.546 99.3652 111.601 99.3014C111.657 99.2376 111.69 99.1589 111.696 99.0763L111.776 93.3662C111.774 93.2975 111.79 93.2295 111.824 93.1687C111.857 93.1079 111.907 93.0564 111.967 93.0191L117.122 90.1196C117.194 90.0731 117.249 90.0064 117.279 89.9288C117.31 89.8511 117.314 89.7664 117.291 89.6864C117.269 89.6064 117.221 89.5351 117.154 89.4823C117.087 89.4295 117.004 89.3979 116.918 89.3919L110.926 89.3159C110.854 89.318 110.783 89.3023 110.719 89.2703C110.655 89.2384 110.601 89.1913 110.562 89.1336L107.52 84.2207C107.471 84.1522 107.401 84.0999 107.319 84.071C107.238 84.0421 107.149 84.0381 107.065 84.0596C106.981 84.081 106.906 84.1268 106.851 84.1906C106.796 84.2544 106.762 84.3331 106.756 84.4157L106.676 90.1259C106.678 90.1945 106.662 90.2625 106.628 90.3234C106.595 90.3842 106.546 90.4357 106.485 90.473L101.33 93.3724C101.258 93.4189 101.203 93.4857 101.173 93.5633C101.143 93.6409 101.139 93.7256 101.161 93.8056C101.184 93.8856 101.232 93.957 101.299 94.0097C101.366 94.0625 101.448 94.0941 101.535 94.1002Z" fill="url(#paint2_linear_386_94)" stroke="#FCD34D" stroke-width="0.0625" stroke-linecap="round" stroke-linejoin="round"/>
<mask id="mask1_386_94" style="mask-type:luminance" maskUnits="userSpaceOnUse" x="29" y="73" width="76" height="46">
<path d="M29 73H105V118.422H29V73Z" fill="white"/>
</mask>
<g mask="url(#mask1_386_94)">
<g clip-path="url(#clip0_386_94)">
<path d="M85.1091 111.311C80.048 112.704 74.6408 112.03 70.0762 109.438C65.5116 106.846 62.1631 102.547 60.7666 97.4872C60.3454 95.8768 60.1336 94.2187 60.1363 92.5541C55.5837 94.2858 51.8319 97.6393 49.6024 101.97C47.3728 106.3 46.8229 111.302 48.0583 116.014C50.8667 126.495 61.7477 132.692 72.3865 129.842C81.3477 127.44 87.2252 119.381 87.186 110.632C86.5019 110.897 85.8038 111.125 85.0947 111.315L85.1091 111.311Z" fill="url(#paint3_linear_386_94)" stroke="#72B9D5" stroke-width="0.1875" stroke-linecap="round" stroke-linejoin="round"/>
</g>
</g>
<g clip-path="url(#clip1_386_94)">
<path d="M45.625 131.781H81.25" stroke="url(#paint4_linear_386_94)" stroke-width="0.75" stroke-miterlimit="10" stroke-linecap="round"/>
<path d="M52.75 124.656H88.375" stroke="url(#paint5_linear_386_94)" stroke-width="0.75" stroke-miterlimit="10" stroke-linecap="round"/>
</g>
<defs>
<linearGradient id="paint0_linear_386_94" x1="109.192" y1="46.0884" x2="117.371" y2="54.6753" gradientUnits="userSpaceOnUse">
<stop stop-color="#FCD966"/>
<stop offset="0.5" stop-color="#FCD966"/>
<stop offset="1" stop-color="#FCCD34"/>
</linearGradient>
<linearGradient id="paint1_linear_386_94" x1="78.2513" y1="67.1252" x2="86.7437" y2="75.9991" gradientUnits="userSpaceOnUse">
<stop stop-color="#FCD966"/>
<stop offset="0.5" stop-color="#FCD966"/>
<stop offset="1" stop-color="#FCCD34"/>
</linearGradient>
<linearGradient id="paint2_linear_386_94" x1="104.063" y1="86.8242" x2="113.893" y2="97.1408" gradientUnits="userSpaceOnUse">
<stop stop-color="#FCD966"/>
<stop offset="0.5" stop-color="#FCD966"/>
<stop offset="1" stop-color="#FCCD34"/>
</linearGradient>
<linearGradient id="paint3_linear_386_94" x1="51.3567" y1="98.9021" x2="79.2519" y2="126.788" gradientUnits="userSpaceOnUse">
<stop stop-color="#86C3DB"/>
<stop offset="0.5" stop-color="#86C3DB"/>
<stop offset="1" stop-color="#5EAFCF"/>
</linearGradient>
<linearGradient id="paint4_linear_386_94" x1="-nan" y1="-nan" x2="-nan" y2="-nan" gradientUnits="userSpaceOnUse">
<stop stop-color="#D4D7DD"/>
<stop offset="0.5" stop-color="#D4D7DD"/>
<stop offset="1" stop-color="#BEC1C6"/>
</linearGradient>
<linearGradient id="paint5_linear_386_94" x1="-nan" y1="-nan" x2="-nan" y2="-nan" gradientUnits="userSpaceOnUse">
<stop stop-color="#D4D7DD"/>
<stop offset="0.5" stop-color="#D4D7DD"/>
<stop offset="1" stop-color="#BEC1C6"/>
</linearGradient>
<clipPath id="clip0_386_94">
<rect width="40.0781" height="40.0781" fill="white" transform="translate(46.9609 90.9609)"/>
</clipPath>
<clipPath id="clip1_386_94">
<rect width="39.1875" height="10.6875" fill="white" transform="translate(47.4062 122.875)"/>
</clipPath>
</defs>
</svg>
