<svg width="22" height="22" viewBox="0 0 22 22" fill="none" xmlns="http://www.w3.org/2000/svg">
<path fill-rule="evenodd" clip-rule="evenodd" d="M11.8839 18.5134V21.6071C11.8839 21.8241 11.7081 22 11.4911 22H10.5089C10.2919 22 10.1161 21.8241 10.1161 21.6071V18.5134C10.5051 18.5537 10.7998 18.5739 11 18.5739C11.2002 18.5739 11.4949 18.5537 11.8839 18.5134ZM16.9236 15.6735L19.1112 17.8611C19.2646 18.0145 19.2646 18.2633 19.1112 18.4167L18.4167 19.1112C18.2633 19.2646 18.0145 19.2646 17.8611 19.1112L15.6735 16.9235C15.9771 16.677 16.1997 16.4829 16.3413 16.3413C16.4829 16.1997 16.677 15.9771 16.9236 15.6735M5.07643 15.6735C5.32301 15.9771 5.51709 16.1997 5.65867 16.3413C5.80026 16.4829 6.02286 16.677 6.32647 16.9235L4.13887 19.1112C3.98546 19.2646 3.73669 19.2646 3.5833 19.1112L2.8888 18.4167C2.73539 18.2633 2.73539 18.0145 2.8888 17.8611L5.07643 15.6735ZM11 5.25446C14.1732 5.25446 16.7455 7.82682 16.7455 11C16.7455 14.1732 14.1732 16.7455 11 16.7455C7.82682 16.7455 5.25446 14.1732 5.25446 11C5.25446 7.82682 7.82682 5.25446 11 5.25446ZM3.48661 10.1161C3.44627 10.5051 3.42611 10.7998 3.42611 11C3.42611 11.2002 3.44627 11.4949 3.48661 11.8839H0.392857C0.175877 11.8839 0 11.7081 0 11.4911V10.5089C0 10.2919 0.175877 10.1161 0.392857 10.1161H3.48661ZM21.6071 10.1161C21.8241 10.1161 22 10.2919 22 10.5089V11.4911C22 11.7081 21.8241 11.8839 21.6071 11.8839H18.5134C18.5537 11.4949 18.5739 11.2002 18.5739 11C18.5739 10.7998 18.5537 10.5051 18.5134 10.1161H21.6071ZM18.4167 2.86425L19.1112 3.55875C19.2646 3.71216 19.2646 3.96091 19.1112 4.11432L16.9235 6.30192C16.677 5.99831 16.4829 5.7757 16.3413 5.63411C16.1997 5.49254 15.9771 5.29846 15.6735 5.05187L17.8611 2.86425C18.0145 2.71084 18.2633 2.71084 18.4167 2.86425M4.13885 2.86425L6.32645 5.05187C6.02284 5.29846 5.80023 5.49254 5.65864 5.63411C5.51706 5.7757 5.32298 5.99831 5.0764 6.30192L2.88878 4.11432C2.73537 3.96091 2.73537 3.71213 2.88878 3.55875L3.58327 2.86425C3.73669 2.71084 3.98544 2.71084 4.13885 2.86425ZM11.4911 0C11.7081 0 11.8839 0.175877 11.8839 0.392857V3.48661C11.4949 3.44627 11.2002 3.42611 11 3.42611C10.7998 3.42611 10.5051 3.44627 10.1161 3.48661V0.392857C10.1161 0.175877 10.2919 0 10.5089 0H11.4911Z" fill="#60501E"/>
</svg>
