<svg width="28" height="26" viewBox="0 0 28 26" fill="none" xmlns="http://www.w3.org/2000/svg">
<path d="M10.8631 1.68997C8.75569 0.568898 5.8101 0.0197347 1.86651 0.000237809C1.49459 -0.00539219 1.12997 0.115444 0.821268 0.346633C0.567882 0.537462 0.360464 0.794742 0.217258 1.09584C0.0740527 1.39695 -0.000553165 1.73264 3.08783e-06 2.07341V20.667C3.08783e-06 21.9239 0.802603 22.8721 1.86651 22.8721C6.01192 22.8721 10.1702 23.3036 12.6608 25.9266C12.6948 25.9626 12.7377 25.9867 12.7839 25.9959C12.8302 26.005 12.8778 25.9988 12.921 25.9781C12.9641 25.9573 13.0008 25.9229 13.0265 25.8791C13.0522 25.8352 13.0658 25.784 13.0656 25.7316V3.82293C13.0656 3.67512 13.0372 3.52902 12.9823 3.39448C12.9274 3.25995 12.8472 3.14011 12.7471 3.04306C12.1766 2.49964 11.5429 2.0445 10.8631 1.68997ZM27.1764 0.344683C26.8675 0.11407 26.5029 -0.0060919 26.1312 0.000237809C22.1876 0.0197347 19.242 0.566298 17.1346 1.68997C16.4548 2.04385 15.8209 2.49809 15.25 3.04046C15.1501 3.13765 15.0701 3.25753 15.0153 3.39205C14.9604 3.52656 14.9321 3.6726 14.9321 3.82033V25.7303C14.9321 25.7806 14.9454 25.8298 14.9703 25.8717C14.9953 25.9136 15.0308 25.9464 15.0724 25.9659C15.1141 25.9854 15.1599 25.9908 15.2043 25.9814C15.2486 25.9719 15.2895 25.9481 15.3217 25.9129C16.819 24.2557 19.4467 22.8701 26.1335 22.8708C26.6285 22.8708 27.1033 22.6517 27.4533 22.2617C27.8033 21.8716 28 21.3427 28 20.7911V2.07406C28.0007 1.73262 27.9259 1.39625 27.7823 1.09464C27.6386 0.793028 27.4305 0.535462 27.1764 0.344683Z" fill="#EBDEC2"/>
</svg>
