<svg width="24" height="24" viewBox="0 0 24 24" fill="none" xmlns="http://www.w3.org/2000/svg">
<g clip-path="url(#clip0_391_438)">
<path d="M0.514995 11.8564C0.514433 13.8729 1.0453 15.8418 2.05473 17.5772L0.418457 23.5067L6.5324 21.9156C8.22345 22.8293 10.1181 23.3081 12.0435 23.3082H12.0486C18.4046 23.3082 23.5786 18.1749 23.5813 11.8654C23.5825 8.80801 22.3839 5.93304 20.2063 3.77006C18.029 1.60727 15.1334 0.415549 12.0481 0.414154C5.69131 0.414154 0.517713 5.54718 0.515089 11.8564" fill="url(#paint0_linear_391_438)"/>
<path d="M0.103217 11.8527C0.102561 13.9417 0.652452 15.981 1.69787 17.7786L0.00292969 23.9207L6.3361 22.2726C8.0811 23.2168 10.0458 23.7147 12.045 23.7154H12.0501C18.6342 23.7154 23.994 18.3975 23.9968 11.8621C23.998 8.69488 22.7563 5.71656 20.5009 3.47609C18.2451 1.23591 15.2459 0.00130233 12.0501 0C5.46492 0 0.105841 5.31721 0.103217 11.8527ZM3.87485 17.469L3.63838 17.0965C2.64432 15.5277 2.11964 13.7149 2.12039 11.8534C2.12245 6.4213 6.5767 2.00186 12.0539 2.00186C14.7063 2.00298 17.1991 3.02921 19.074 4.89116C20.9488 6.7533 21.9804 9.22865 21.9798 11.8614C21.9773 17.2935 17.523 21.7135 12.0501 21.7135H12.0462C10.2642 21.7126 8.51646 21.2376 6.99228 20.34L6.62956 20.1265L2.87133 21.1045L3.87485 17.469Z" fill="url(#paint1_linear_391_438)"/>
<path d="M9.06427 6.89749C8.84063 6.40419 8.60529 6.39424 8.39262 6.38559C8.21848 6.37814 8.01941 6.3787 7.82052 6.3787C7.62144 6.3787 7.298 6.45303 7.0246 6.74931C6.75092 7.04587 5.97974 7.76252 5.97974 9.2201C5.97974 10.6777 7.04943 12.0864 7.19855 12.2843C7.34786 12.4818 9.26362 15.5687 12.2977 16.7562C14.8193 17.7431 15.3325 17.5468 15.8798 17.4973C16.4271 17.448 17.6459 16.7808 17.8946 16.089C18.1434 15.3973 18.1434 14.8044 18.0688 14.6805C17.9942 14.557 17.7951 14.4829 17.4966 14.3348C17.1981 14.1867 15.7304 13.4699 15.4569 13.371C15.1832 13.2722 14.9842 13.2229 14.7851 13.5195C14.5861 13.8157 14.0144 14.4829 13.8402 14.6805C13.6661 14.8785 13.4919 14.9032 13.1935 14.755C12.8948 14.6063 11.9334 14.2939 10.7929 13.2847C9.90546 12.4994 9.30636 11.5296 9.13222 11.2329C8.95807 10.9367 9.11357 10.7762 9.26325 10.6286C9.39737 10.4958 9.56186 10.2826 9.71126 10.1097C9.86009 9.93666 9.90977 9.81321 10.0093 9.61563C10.1089 9.41786 10.0591 9.24484 9.98456 9.09666C9.90977 8.94847 9.3297 7.48326 9.06427 6.89749Z" fill="#FAF7F0"/>
</g>
<defs>
<linearGradient id="paint0_linear_391_438" x1="1158.56" y1="2309.67" x2="1158.56" y2="0.414154" gradientUnits="userSpaceOnUse">
<stop stop-color="#1FAF38"/>
<stop offset="1" stop-color="#60D669"/>
</linearGradient>
<linearGradient id="paint1_linear_391_438" x1="1199.7" y1="2392.07" x2="1199.7" y2="0" gradientUnits="userSpaceOnUse">
<stop stop-color="#F9F9F9"/>
<stop offset="1" stop-color="white"/>
</linearGradient>
<clipPath id="clip0_391_438">
<rect width="24" height="24" fill="white"/>
</clipPath>
</defs>
</svg>
